<?xml version="1.0" encoding="UTF-8" standalone="no"?>
<!-- Created with Inkscape (http://www.inkscape.org/) -->

<svg
   xmlns:dc="http://purl.org/dc/elements/1.1/"
   xmlns:cc="http://creativecommons.org/ns#"
   xmlns:rdf="http://www.w3.org/1999/02/22-rdf-syntax-ns#"
   xmlns:svg="http://www.w3.org/2000/svg"
   xmlns="http://www.w3.org/2000/svg"
   xmlns:sodipodi="http://sodipodi.sourceforge.net/DTD/sodipodi-0.dtd"
   xmlns:inkscape="http://www.inkscape.org/namespaces/inkscape"
   width="78.618507"
   height="70.033501"
   id="svg15214"
   version="1.1"
   inkscape:version="0.48.0 r9654"
   sodipodi:docname="Blue tv.svg">
  <defs
     id="defs15216" />
  <sodipodi:namedview
     id="base"
     pagecolor="#ffffff"
     bordercolor="#666666"
     borderopacity="1.0"
     inkscape:pageopacity="0.0"
     inkscape:pageshadow="2"
     inkscape:zoom="1.4"
     inkscape:cx="190.29584"
     inkscape:cy="83.947866"
     inkscape:document-units="px"
     inkscape:current-layer="layer1"
     showgrid="false"
     fit-margin-top="0"
     fit-margin-left="0"
     fit-margin-right="0"
     fit-margin-bottom="0"
     inkscape:window-width="1366"
     inkscape:window-height="706"
     inkscape:window-x="-8"
     inkscape:window-y="-8"
     inkscape:window-maximized="1" />
  <metadata
     id="metadata15219">
    <rdf:RDF>
      <cc:Work
         rdf:about="">
        <dc:format>image/svg+xml</dc:format>
        <dc:type
           rdf:resource="http://purl.org/dc/dcmitype/StillImage" />
        <dc:title></dc:title>
      </cc:Work>
    </rdf:RDF>
  </metadata>
  <g
     inkscape:label="Layer 1"
     inkscape:groupmode="layer"
     id="layer1"
     transform="translate(-174.17231,-610.23129)">
    <g
       id="g12433"
       transform="matrix(0.9095201,0,0,-0.9095201,231.59649,666.76897)">
      <path
         d="m 0,0 c 0,0 -8.535,1.449 -6.764,9.017 0,0 -4.024,-11.272 5.637,-12.559 L 0,0 z"
         style="fill:#6e6d6d;fill-opacity:1;fill-rule:nonzero;stroke:none"
         id="path12435"
         inkscape:connector-curvature="0" />
    </g>
    <g
       id="g12437"
       transform="matrix(0.9095201,0,0,-0.9095201,239.14087,666.76897)">
      <path
         d="m 0,0 c 0,0 8.534,1.449 6.763,9.017 0,0 4.025,-11.272 -5.636,-12.559 L 0,0 z"
         style="fill:#6e6d6d;fill-opacity:1;fill-rule:nonzero;stroke:none"
         id="path12439"
         inkscape:connector-curvature="0" />
    </g>
    <g
       id="g12441"
       transform="matrix(0.9095201,0,0,-0.9095201,183.74273,645.64173)">
      <path
         d="m 0,0 c -0.647,-1.185 -1.278,-2.38 -1.894,-3.584 -0.982,-1.922 -2.084,-4.312 -4.181,-5.234 0,0 18.388,8.076 37.894,0 0,0 -12.14,14.719 -16.32,26.99 -4.181,12.271 -4.181,-0.262 -4.181,-0.262 0,-0.757 -1.649,-2.464 -2.107,-3.149 C 8.396,13.542 7.581,12.322 6.776,11.098 5.203,8.704 3.659,6.29 2.189,3.831 1.435,2.568 0.706,1.29 0,0"
         style="fill:#c03539;fill-opacity:1;fill-rule:nonzero;stroke:none"
         id="path12443"
         inkscape:connector-curvature="0" />
    </g>
    <g
       id="g12445"
       transform="matrix(0.9095201,0,0,-0.9095201,202.29112,622.77048)">
      <path
         d="m 0,0 c 0,-4.101 -3.324,-7.427 -7.426,-7.427 -4.102,0 -7.428,3.326 -7.428,7.427 0,4.102 3.326,7.427 7.428,7.427 C -3.324,7.427 0,4.102 0,0"
         style="fill:#e4bd9a;fill-opacity:1;fill-rule:nonzero;stroke:none"
         id="path12447"
         inkscape:connector-curvature="0" />
    </g>
    <g
       id="g12449"
       transform="matrix(0.9095201,0,0,-0.9095201,187.37017,630.26921)">
      <path
         d="m 0,0 18.388,0 -4.969,-21.992 -7.332,0 L 0,0 z"
         style="fill:#3169b1;fill-opacity:1;fill-rule:nonzero;stroke:none"
         id="path12451"
         inkscape:connector-curvature="0" />
    </g>
    <g
       id="g12453"
       transform="matrix(0.9095201,0,0,-0.9095201,204.54718,632.41776)">
      <path
         d="M 0,0 10.685,13.17 13.791,10.064 0.745,-1.118 0,0 z"
         style="fill:#e4bd9a;fill-opacity:1;fill-rule:nonzero;stroke:none"
         id="path12455"
         inkscape:connector-curvature="0" />
    </g>
    <g
       id="g12457"
       transform="matrix(0.9095201,0,0,-0.9095201,186.35323,632.53099)">
      <path
         d="M 0,0 -6.336,-6.336 0,-15.157 3.106,-12.051 -2.547,-6.398 0.621,-1.242 0,0 z"
         style="fill:#e4bd9a;fill-opacity:1;fill-rule:nonzero;stroke:none"
         id="path12459"
         inkscape:connector-curvature="0" />
    </g>
    <g
       id="g12461"
       transform="matrix(0.9095201,0,0,-0.9095201,221.15829,618.46136)">
      <path
         d="m 0,0 c 0,-1.476 -1.196,-2.672 -2.672,-2.672 -1.474,0 -2.671,1.196 -2.671,2.672 0,1.475 1.197,2.671 2.671,2.671 C -1.196,2.671 0,1.475 0,0"
         style="fill:#e4bd9a;fill-opacity:1;fill-rule:nonzero;stroke:none"
         id="path12463"
         inkscape:connector-curvature="0" />
    </g>
    <g
       id="g12465"
       transform="matrix(0.9095201,0,0,-0.9095201,191.81208,647.32316)">
      <path
         d="m 0,0 c 0,-1.263 -1.023,-2.286 -2.287,-2.286 -1.262,0 -2.285,1.023 -2.285,2.286 0,1.263 1.023,2.286 2.285,2.286 C -1.023,2.286 0,1.263 0,0"
         style="fill:#e4bd9a;fill-opacity:1;fill-rule:nonzero;stroke:none"
         id="path12467"
         inkscape:connector-curvature="0" />
    </g>
    <g
       id="g12469"
       transform="matrix(0.9095201,0,0,-0.9095201,191.50475,651.09884)">
      <path
         d="m 0,0 10.363,0 -0.074,-2.265 c 0,0 -3.715,-1.263 -3.715,-3.714 l -2.228,0.148 c 0,0 0.222,3.045 -4.235,3.492 L 0,0 z"
         style="fill:#c03539;fill-opacity:1;fill-rule:nonzero;stroke:none"
         id="path12471"
         inkscape:connector-curvature="0" />
    </g>
    <g
       id="g12473"
       transform="matrix(0.9095201,0,0,-0.9095201,199.62122,654.65971)">
      <path
         d="M 0,0 10.363,0 15.891,-18.653 8.117,-21.762 7.254,-4.836 0,-1.9 0,0 z"
         style="fill:#3169b1;fill-opacity:1;fill-rule:nonzero;stroke:none"
         id="path12475"
         inkscape:connector-curvature="0" />
    </g>
    <g
       id="g12477"
       transform="matrix(0.9095201,0,0,-0.9095201,191.60963,654.81688)">
      <path
         d="M 0,0 -12.09,-21.417 -1.555,-24.008 1.728,-0.69 0,0 z"
         style="fill:#3169b1;fill-opacity:1;fill-rule:nonzero;stroke:none"
         id="path12479"
         inkscape:connector-curvature="0" />
    </g>
    <g
       id="g12481"
       transform="matrix(0.9095201,0,0,-0.9095201,209.2031,675.55284)">
      <path
         d="M 0,0 6.391,3.282 15.027,1.382 1.037,-2.763 0,0 z"
         style="fill:#c03539;fill-opacity:1;fill-rule:nonzero;stroke:none"
         id="path12483"
         inkscape:connector-curvature="0" />
    </g>
    <g
       id="g12485"
       transform="matrix(0.9095201,0,0,-0.9095201,189.41041,678.06557)">
      <path
         d="M 0,0 -9.845,2.936 -16.754,0 -0.346,-2.418 0,0 z"
         style="fill:#c03539;fill-opacity:1;fill-rule:nonzero;stroke:none"
         id="path12487"
         inkscape:connector-curvature="0" />
    </g>
    <g
       id="g12489"
       transform="matrix(0.9095201,0,0,-0.9095201,209.48197,679.94947)">
      <path
         d="M 0,0 C 0,0 16.263,8.855 31.56,0 L 0,0 z"
         style="fill:#fec02d;fill-opacity:1;fill-rule:nonzero;stroke:none"
         id="path12491"
         inkscape:connector-curvature="0" />
    </g>
    <g
       id="g12493"
       transform="matrix(0.9095201,0,0,-0.9095201,242.43261,671.16249)">
      <path
         d="m 0,0 c 0,-4.268 -3.459,-7.729 -7.729,-7.729 -4.267,0 -7.728,3.461 -7.728,7.729 0,4.268 3.461,7.729 7.728,7.729 C -3.459,7.729 0,4.268 0,0"
         style="fill:#fec02d;fill-opacity:1;fill-rule:nonzero;stroke:none"
         id="path12495"
         inkscape:connector-curvature="0" />
    </g>
    <g
       id="g12497"
       transform="matrix(0.9095201,0,0,-0.9095201,236.72145,668.94372)">
      <path
         d="M 0,0 4.025,-3.864"
         style="fill:none;stroke:#292929;stroke-width:0.69099998;stroke-linecap:butt;stroke-linejoin:miter;stroke-miterlimit:4;stroke-opacity:1;stroke-dasharray:none"
         id="path12499"
         inkscape:connector-curvature="0" />
    </g>
    <g
       id="g12501"
       transform="matrix(0.9095201,0,0,-0.9095201,240.38264,668.50406)">
      <path
         d="M 0,0 -3.542,-4.348"
         style="fill:none;stroke:#292929;stroke-width:0.69099998;stroke-linecap:butt;stroke-linejoin:miter;stroke-miterlimit:4;stroke-opacity:1;stroke-dasharray:none"
         id="path12503"
         inkscape:connector-curvature="0" />
    </g>
    <g
       id="g12505"
       transform="matrix(0.9095201,0,0,-0.9095201,230.56173,669.16228)">
      <path
         d="M 0,0 4.024,-3.863"
         style="fill:none;stroke:#292929;stroke-width:0.69099998;stroke-linecap:butt;stroke-linejoin:miter;stroke-miterlimit:4;stroke-opacity:1;stroke-dasharray:none"
         id="path12507"
         inkscape:connector-curvature="0" />
    </g>
    <g
       id="g12509"
       transform="matrix(0.9095201,0,0,-0.9095201,234.222,668.72262)">
      <path
         d="M 0,0 -3.541,-4.347"
         style="fill:none;stroke:#292929;stroke-width:0.69099998;stroke-linecap:butt;stroke-linejoin:miter;stroke-miterlimit:4;stroke-opacity:1;stroke-dasharray:none"
         id="path12511"
         inkscape:connector-curvature="0" />
    </g>
    <g
       id="g12513"
       transform="matrix(0.9095201,0,0,-0.9095201,241.55683,674.55947)">
      <path
         d="M 0,0 -6.766,0 -3.5,-3.266 c 0,0 1.893,0.175 3.5,3.266 z"
         style="fill:none;stroke:#292929;stroke-width:0.69099998;stroke-linecap:butt;stroke-linejoin:miter;stroke-miterlimit:4;stroke-opacity:1;stroke-dasharray:none"
         id="path12515"
         inkscape:connector-curvature="0" />
    </g>
    <g
       id="g12517"
       transform="matrix(0.9095201,0,0,-0.9095201,189.99487,624.26046)">
      <path
         d="m 0,0 11.928,2.214 0,-3.428 L 1.929,-3.643 0,0 z"
         style="fill:none;stroke:#292929;stroke-width:0.69099998;stroke-linecap:butt;stroke-linejoin:miter;stroke-miterlimit:4;stroke-opacity:1;stroke-dasharray:none"
         id="path12519"
         inkscape:connector-curvature="0" />
    </g>
    <g
       id="g12521"
       transform="matrix(0.9095201,0,0,-0.9095201,252.47817,673.48341)">
      <path
         d="m 0,0 c 0,1.389 -1.126,2.514 -2.515,2.514 -0.027,0 -0.053,-0.008 -0.081,-0.008 0.029,0.15 0.047,0.304 0.047,0.461 0,1.37 -1.109,2.479 -2.479,2.479 -1.026,0 -1.906,-0.622 -2.283,-1.51 -0.119,0.018 -0.239,0.037 -0.363,0.037 -1.369,0 -2.479,-1.111 -2.479,-2.479 0,-1.072 0.682,-1.975 1.633,-2.321 l -1.222,-1.618 1.117,-1.118 2.03,0.586 c 0.024,-1.329 1.105,-2.4 2.44,-2.4 1.348,0 2.443,1.094 2.443,2.443 0,0.188 -0.025,0.368 -0.064,0.543 C -0.751,-2.074 0,-1.131 0,0 z"
         style="fill:none;stroke:#292929;stroke-width:0.69099998;stroke-linecap:butt;stroke-linejoin:miter;stroke-miterlimit:4;stroke-opacity:1;stroke-dasharray:none"
         id="path12523"
         inkscape:connector-curvature="0" />
    </g>
    <g
       id="g12525"
       transform="matrix(0.9095201,0,0,-0.9095201,196.86955,618.98542)">
      <path
         d="M 0,0 C 0,0 2.926,9.284 9.285,9.284"
         style="fill:none;stroke:#292929;stroke-width:0.69099998;stroke-linecap:butt;stroke-linejoin:miter;stroke-miterlimit:4;stroke-opacity:1;stroke-dasharray:none"
         id="path12527"
         inkscape:connector-curvature="0" />
    </g>
    <g
       id="g12529"
       transform="matrix(0.9095201,0,0,-0.9095201,192.67185,619.39534)">
      <path
         d="M 0,0 C 0,0 -4.389,8.216 -11.141,9.566"
         style="fill:none;stroke:#292929;stroke-width:0.69099998;stroke-linecap:butt;stroke-linejoin:miter;stroke-miterlimit:4;stroke-opacity:1;stroke-dasharray:none"
         id="path12531"
         inkscape:connector-curvature="0" />
    </g>
    <g
       id="g12533"
       transform="matrix(0.9095201,0,0,-0.9095201,198.81465,619.80481)">
      <path
         d="m 0,0 c 0,-0.373 -0.302,-0.675 -0.676,-0.675 -0.373,0 -0.675,0.302 -0.675,0.675 0,0.373 0.302,0.675 0.675,0.675 C -0.302,0.675 0,0.373 0,0"
         style="fill:#292929;fill-opacity:1;fill-rule:nonzero;stroke:none"
         id="path12535"
         inkscape:connector-curvature="0" />
    </g>
    <g
       id="g12537"
       transform="matrix(0.9095201,0,0,-0.9095201,192.67367,620.93062)">
      <path
         d="m 0,0 c 0,-0.374 -0.303,-0.675 -0.676,-0.675 -0.373,0 -0.676,0.301 -0.676,0.675 0,0.373 0.303,0.675 0.676,0.675 C -0.303,0.675 0,0.373 0,0"
         style="fill:#292929;fill-opacity:1;fill-rule:nonzero;stroke:none"
         id="path12539"
         inkscape:connector-curvature="0" />
    </g>
  </g>
</svg>
