<?xml version="1.0" encoding="UTF-8" standalone="no"?>
<!-- Created with Inkscape (http://www.inkscape.org/) -->
<svg
   xmlns:dc="http://purl.org/dc/elements/1.1/"
   xmlns:cc="http://creativecommons.org/ns#"
   xmlns:rdf="http://www.w3.org/1999/02/22-rdf-syntax-ns#"
   xmlns:svg="http://www.w3.org/2000/svg"
   xmlns="http://www.w3.org/2000/svg"
   xmlns:xlink="http://www.w3.org/1999/xlink"
   xmlns:sodipodi="http://sodipodi.sourceforge.net/DTD/sodipodi-0.dtd"
   xmlns:inkscape="http://www.inkscape.org/namespaces/inkscape"
   width="602.85718"
   height="701.82446"
   id="svg2"
   sodipodi:version="0.32"
   inkscape:version="0.46"
   sodipodi:docname="superhero_flame.svg"
   inkscape:output_extension="org.inkscape.output.svg.inkscape"
   version="1.0">
  <defs
     id="defs4">
    <linearGradient
       inkscape:collect="always"
       id="linearGradient3659">
      <stop
         style="stop-color:#ff9955;stop-opacity:1;"
         offset="0"
         id="stop3661" />
      <stop
         style="stop-color:#ff9955;stop-opacity:0;"
         offset="1"
         id="stop3663" />
    </linearGradient>
    <inkscape:perspective
       sodipodi:type="inkscape:persp3d"
       inkscape:vp_x="0 : 526.18109 : 1"
       inkscape:vp_y="0 : 1000 : 0"
       inkscape:vp_z="744.09448 : 526.18109 : 1"
       inkscape:persp3d-origin="372.04724 : 350.78739 : 1"
       id="perspective10" />
    <filter
       inkscape:collect="always"
       id="filter3247"
       x="-0.16993293"
       width="1.3398659"
       y="-0.11315356"
       height="1.2263072">
      <feGaussianBlur
         inkscape:collect="always"
         stdDeviation="1.8712852"
         id="feGaussianBlur3249" />
    </filter>
    <filter
       inkscape:collect="always"
       id="filter3470"
       x="-0.10372717"
       width="1.2074543"
       y="-0.15576494"
       height="1.3115299">
      <feGaussianBlur
         inkscape:collect="always"
         stdDeviation="2.5314369"
         id="feGaussianBlur3472" />
    </filter>
    <filter
       inkscape:collect="always"
       id="filter3655">
      <feGaussianBlur
         inkscape:collect="always"
         stdDeviation="2.7985359"
         id="feGaussianBlur3657" />
    </filter>
    <filter
       inkscape:collect="always"
       id="filter3900"
       x="-0.098460577"
       width="1.1969212"
       y="-1.1891009"
       height="3.3782017">
      <feGaussianBlur
         inkscape:collect="always"
         stdDeviation="18.402751"
         id="feGaussianBlur3902" />
    </filter>
    <linearGradient
       inkscape:collect="always"
       xlink:href="#linearGradient3659"
       id="linearGradient3933"
       gradientUnits="userSpaceOnUse"
       x1="409.7551"
       y1="183.79076"
       x2="347.14285"
       y2="320.93362" />
  </defs>
  <sodipodi:namedview
     id="base"
     pagecolor="#ffffff"
     bordercolor="#666666"
     borderopacity="1.0"
     gridtolerance="10000"
     guidetolerance="10"
     objecttolerance="10"
     inkscape:pageopacity="0.0"
     inkscape:pageshadow="2"
     inkscape:zoom="0.35"
     inkscape:cx="247.98559"
     inkscape:cy="246.57218"
     inkscape:document-units="px"
     inkscape:current-layer="g3677"
     showgrid="false"
     inkscape:window-width="807"
     inkscape:window-height="841"
     inkscape:window-x="1"
     inkscape:window-y="-2" />
  <metadata
     id="metadata7">
    <rdf:RDF>
      <cc:Work
         rdf:about="">
        <dc:format>image/svg+xml</dc:format>
        <dc:type
           rdf:resource="http://purl.org/dc/dcmitype/StillImage" />
      </cc:Work>
    </rdf:RDF>
  </metadata>
  <g
     inkscape:label="Layer 1"
     inkscape:groupmode="layer"
     id="layer1"
     transform="translate(-31.428573,-21.966355)">
    <g
       id="g3677"
       transform="translate(36.365492,-28.284271)">
      <g
         id="g3904"
         transform="matrix(0.8683128,0,0,0.8683128,6.7925515,-89.509227)"
         inkscape:export-filename="C:\Documents and Settings\Smitha\Desktop\clipart\sausage\superhero_flame.png"
         inkscape:export-xdpi="53.52"
         inkscape:export-ydpi="53.52">
        <path
           transform="matrix(1,0,0,1.6153846,-33.508349,-546.13644)"
           d="M 568.57143,919.50507 A 224.28572,18.571428 0 1 1 119.99998,919.50507 A 224.28572,18.571428 0 1 1 568.57143,919.50507 z"
           sodipodi:ry="18.571428"
           sodipodi:rx="224.28572"
           sodipodi:cy="919.50507"
           sodipodi:cx="344.28571"
           id="path3758"
           style="opacity:1;fill:#ac9d93;fill-opacity:1;stroke:none;stroke-width:3;stroke-miterlimit:4;stroke-dasharray:none;stroke-dashoffset:0;stroke-opacity:1;filter:url(#filter3900)"
           sodipodi:type="arc" />
        <g
           transform="matrix(0.8154362,0,0,0.8154362,79.050472,109.57855)"
           id="g3729">
          <path
             transform="matrix(1.5204082,0,0,1.5204082,-317.67744,-151.00625)"
             d="M 694.28571,432.36218 A 280,280 0 1 1 134.28571,432.36218 A 280,280 0 1 1 694.28571,432.36218 z"
             sodipodi:ry="280"
             sodipodi:rx="280"
             sodipodi:cy="432.36218"
             sodipodi:cx="414.28571"
             id="path3727"
             style="opacity:1;fill:#ffe3b2;fill-opacity:1;stroke:none;stroke-width:3;stroke-miterlimit:4;stroke-dasharray:none;stroke-dashoffset:0;stroke-opacity:1"
             sodipodi:type="arc" />
          <path
             sodipodi:type="arc"
             style="opacity:1;fill:#ffa900;fill-opacity:0.33720931;stroke:none;stroke-width:3;stroke-miterlimit:4;stroke-dasharray:none;stroke-dashoffset:0;stroke-opacity:1"
             id="path3725"
             sodipodi:cx="414.28571"
             sodipodi:cy="432.36218"
             sodipodi:rx="280"
             sodipodi:ry="280"
             d="M 694.28571,432.36218 A 280,280 0 1 1 134.28571,432.36218 A 280,280 0 1 1 694.28571,432.36218 z"
             transform="translate(-102.07978,73.998557)" />
          <g
             id="g3701">
            <path
               style="fill:#ff9955;fill-opacity:1;fill-rule:evenodd;stroke:#ff6600;stroke-width:2.81391549;stroke-linecap:butt;stroke-linejoin:miter;stroke-miterlimit:4;stroke-dasharray:none;stroke-opacity:1"
               d="M 396.18413,598.70734 C 396.18413,598.70734 384.67191,603.09785 380.06703,607.48836 C 375.46215,611.87886 374.69466,625.05037 376.99711,630.17262 C 379.29955,635.29488 388.50932,641.14888 396.18413,641.88063 C 403.85893,642.61238 413.83617,643.34414 416.9061,637.49014 C 419.97602,631.63613 418.44106,627.97738 413.83617,630.17262 C 409.23129,632.36788 413.06869,635.29488 407.69633,636.02663 C 402.32397,636.75838 400.78901,631.63613 400.78901,631.63613 C 400.78901,631.63613 412.30122,626.51388 412.30122,621.39162 C 412.30122,616.26936 407.69633,606.75661 407.69633,606.75661 L 396.18413,598.70734 z"
               id="path3300" />
            <path
               style="fill:#00aad4;fill-rule:evenodd;stroke:#006680;stroke-width:2.81391549;stroke-linecap:butt;stroke-linejoin:miter;stroke-miterlimit:4;stroke-dasharray:none;stroke-opacity:1"
               d="M 216.47407,317.40885 C 216.47408,317.40886 181.39027,362.71478 168.6375,394.87947 C 155.88473,427.04415 165.44254,466.54638 165.44254,466.54638 C 165.44254,466.54637 208.74155,498.2952 238.36985,476.48302 C 229.08069,511.66614 241.15445,544.66187 241.15445,544.66185 C 241.71495,566.52127 244.10402,585.81705 247.80819,601.52639 C 247.27344,615.65018 241.0879,630.30097 239.80612,657.21847 C 238.46616,685.35763 243.82181,748.32316 243.82181,809.96132 C 243.82181,871.59947 221.04668,969.41654 221.04668,969.41654 L 243.82181,969.41654 C 243.82181,969.41654 293.41708,901.09536 293.41707,868.93631 C 293.41707,836.77727 275.97665,828.72075 275.97666,828.72076 C 275.97666,828.72076 270.61681,759.05538 275.97666,732.25622 C 281.33649,705.45702 300.10012,677.30948 328.23928,702.76873 C 356.37843,728.22797 388.55004,818.00526 391.22995,852.84423 C 393.90987,887.68318 407.29271,969.41654 407.29272,969.41654 L 430.06785,968.09747 C 430.06785,968.09775 452.85973,868.93632 446.15993,831.41743 C 439.46013,793.89856 414.00508,776.48745 414.00508,776.48745 C 414.00508,776.48745 388.55423,702.77707 387.21426,675.97791 C 386.19558,655.60445 365.11571,622.18353 355.0301,607.27147 C 355.03257,606.9564 355.0301,606.60515 355.0301,606.30418 C 355.0301,591.56463 401.92869,529.9265 401.92869,503.12728 C 401.92869,499.62245 401.8381,495.57645 401.57695,491.19745 L 428.74882,508.49131 L 396.59398,598.2728 L 411.62168,607.93647 C 411.62168,607.93647 426.09393,578.61442 443.46126,565.98353 C 472.03523,545.20228 479.12018,517.60186 478.31478,511.15866 C 476.97482,500.43899 424.71639,438.80083 412.65675,426.7412 C 401.34618,415.43063 377.17574,406.96836 371.76703,406.80929 C 366.35833,406.65023 357.34972,404.22698 351.01441,399.95038 C 344.3146,391.91061 357.72677,361.08317 357.72677,361.08317 L 321.55623,355.71914 L 280.60789,423.57554 C 269.36628,425.96307 257.72327,417.95501 250.86078,418.4795 C 231.73163,419.94152 205.30634,427.06362 205.30634,427.06362 C 205.30634,427.06362 216.47407,381.72748 216.47407,361.25904 C 216.47408,340.7906 234.00242,320.34001 234.00242,320.34001 L 216.47407,317.40885 z"
               id="path3284"
               sodipodi:nodetypes="csccscssccscsssccscscssccccssssccccscscc" />
            <path
               style="fill:#ff9955;fill-opacity:1;fill-rule:evenodd;stroke:#d45500;stroke-width:2.81391549;stroke-linecap:butt;stroke-linejoin:miter;stroke-miterlimit:4;stroke-dasharray:none;stroke-opacity:1"
               d="M 232.43634,319.54913 C 232.43634,319.54913 249.85582,313.51932 254.54568,306.14954 C 259.23554,298.77976 257.2256,295.42986 253.20571,293.41992 C 249.18584,291.40998 241.81606,294.08991 241.81606,294.08991 C 241.81606,294.08991 250.5258,280.6903 246.50592,275.33047 C 242.48604,269.97062 235.78624,271.98057 235.11626,275.33047 C 234.44628,278.68037 226.40652,272.65054 221.71666,276.67043 C 217.02681,280.6903 219.03674,287.3901 219.03674,287.3901 C 219.03674,287.3901 206.9771,284.71019 206.9771,290.74 C 206.9771,296.76982 210.99698,298.10978 210.99698,298.10978 C 210.99698,298.10978 202.28724,300.7897 204.29719,304.80958 C 206.30712,308.82946 215.01686,316.86922 215.01686,316.86922 L 232.43634,319.54913 z"
               id="path3298" />
            <path
               style="fill:#0088aa;fill-rule:evenodd;stroke:none;stroke-width:1px;stroke-linecap:butt;stroke-linejoin:miter;stroke-opacity:1;filter:url(#filter3470)"
               d="M 364.61132,329.83425 L 361.75418,351.26282 C 361.75418,351.26282 343.18275,356.26282 333.18275,364.83425 C 323.18275,373.40568 306.03989,365.54854 306.03989,365.54854 L 308.89704,354.83425 L 364.61132,329.83425 z"
               id="path3396"
               transform="matrix(0.9379719,0,0,0.9379719,7.0176826,63.772285)" />
            <g
               id="g3474"
               transform="matrix(0.9379719,0,0,0.9379719,24.072587,14.502562)">
              <path
                 id="path2390"
                 d="M 340.98316,272.24282 C 329.97184,272.52632 316.39818,280.10946 312.13941,282.64907 L 310.76441,282.77407 C 310.76441,282.77407 292.88941,289.93032 292.88941,294.93032 C 292.8894,299.25947 295.5772,303.04664 296.29566,309.08657 C 287.42388,322.95915 275.52846,338.43203 263.60816,344.21157 C 240.03672,355.64016 235.77334,380.62228 237.20191,391.33657 C 238.63049,402.05084 266.48316,419.908 291.48316,411.33657 C 316.48315,402.76513 362.91173,381.34996 371.48316,368.49282 C 380.0546,355.63564 367.17959,317.05532 373.60816,307.05532 C 380.03672,297.05533 362.90726,284.21603 350.76441,274.93032 C 348.10816,272.89907 344.68723,272.14745 340.98316,272.24282 z"
                 style="fill:#ff9955;fill-rule:evenodd;stroke:#d45500;stroke-width:2;stroke-linecap:butt;stroke-linejoin:miter;stroke-miterlimit:4;stroke-dasharray:none;stroke-opacity:1" />
              <path
                 id="path2385"
                 d="M 421.57691,52.711567 C 421.33206,52.715317 421.09349,52.729637 420.85816,52.742817 C 412.42878,53.257677 405.18587,58.186977 398.70191,63.180317 C 389.7517,70.191017 381.70058,78.371277 374.79566,87.399067 C 366.08348,99.381267 362.0124,114.33499 362.10816,129.05532 C 362.1941,146.91542 366.63667,164.365 371.04566,181.55532 C 373.44151,191.38902 376.75632,201.24034 376.29566,211.49282 C 376.28802,211.67087 376.2742,211.84561 376.26441,212.02407 C 370.27633,204.80979 361.84759,194.31895 357.92066,187.77407 C 351.49208,177.05977 360.76441,162.05531 360.76441,162.05532 C 360.7644,162.05531 355.75995,161.3455 350.04566,172.77407 C 344.33137,184.20263 351.48764,191.32316 352.20191,209.18032 C 352.69297,221.45709 344.39789,225.9969 339.17066,227.61782 C 338.18826,226.01723 337.34286,224.33139 336.67066,222.61782 C 334.72516,217.71686 334.14945,212.328 334.92066,207.11782 C 337.03581,194.22211 341.41292,181.82619 343.38941,168.89907 C 345.48485,156.78079 347.45961,144.39179 345.92066,132.08657 C 343.9597,117.96621 337.21727,104.44019 326.60816,94.836567 C 322.21092,90.655947 317.18683,87.123077 311.73316,84.461567 C 316.55862,96.683927 320.46545,109.68032 319.76441,122.96157 C 319.2917,129.29897 316.13104,135.18453 311.70191,139.64907 C 303.02124,149.71211 293.00893,158.7353 285.92066,170.08657 C 278.59352,181.2252 273.75279,194.09489 272.70191,207.43032 C 271.41674,220.91358 274.03774,234.84087 280.70191,246.68032 C 287.8277,259.98511 298.60833,271.00017 310.51441,280.11782 C 315.13111,283.55308 319.94617,286.71499 324.95191,289.55532 C 332.88114,286.36323 341.09377,282.56493 349.85816,283.24282 C 355.18417,283.71091 360.09534,287.68435 361.29566,292.96157 C 363.63239,300.54288 361.9052,308.59949 359.79566,316.02407 C 358.50481,320.07381 356.9335,324.03244 355.17066,327.89907 C 360.28003,325.50999 365.38036,323.09618 370.45191,320.61782 C 372.08115,322.45306 373.05874,325.23388 372.23316,329.08657 C 370.71792,336.15765 365.67066,338.68032 365.67066,338.68032 C 365.67067,338.68032 365.68747,352.33308 370.23316,358.89907 C 374.77883,365.46504 379.29962,373.54945 394.45191,371.02407 C 409.6042,368.49868 409.60816,358.89907 409.60816,358.89907 C 409.60816,358.89905 408.61165,363.4354 402.04566,362.93032 C 395.47966,362.42525 402.53789,333.64669 412.63941,324.55532 C 422.74094,315.46393 454.56913,282.63766 464.67066,258.89907 C 465.92353,255.95484 466.84292,253.04648 467.54566,250.24282 C 467.55211,250.2208 467.5705,250.20236 467.57691,250.18032 C 467.61658,250.02125 467.66382,249.87008 467.70191,249.71157 C 468.2336,247.78876 468.61176,245.80731 468.85816,243.83657 C 472.22771,226.26533 472.05375,207.9639 467.82691,190.55532 C 466.09114,182.17133 463.155,173.75383 457.35816,167.27407 C 449.32227,156.93373 445.10803,143.73086 445.63941,130.64907 C 445.86994,122.47453 447.77552,114.36965 451.01441,106.86782 C 441.97499,115.75335 433.956,126.209 430.10816,138.43032 C 428.06644,145.63567 428.79019,153.3468 431.20191,160.36782 C 435.21341,173.66173 442.62036,185.87388 445.29566,199.52407 C 446.71478,206.76489 446.59475,210.84456 444.85816,216.36782 C 442.93861,220.46698 440.68527,224.41101 438.32691,228.27407 C 435.83459,232.25477 433.05404,235.80848 430.01441,239.21157 C 429.43346,239.73024 430.76616,237.54593 430.92066,236.99282 C 435.13065,227.65906 437.64665,217.29134 436.70191,206.96157 C 435.95431,196.61052 431.69652,186.96326 427.70191,177.52407 C 421.00659,162.33122 413.94029,147.28908 407.70191,131.89907 C 404.87871,124.90031 402.16336,117.74977 401.42066,110.18032 C 399.90934,97.323307 402.63991,84.066407 408.88941,72.742817 C 412.68597,65.493037 417.81565,58.999527 423.63941,53.274067 C 423.06312,52.783597 422.31142,52.700297 421.57691,52.711567 z"
                 style="fill:#ff7f2a;fill-rule:evenodd;stroke:#d45500;stroke-width:2;stroke-linecap:butt;stroke-linejoin:miter;stroke-miterlimit:4;stroke-dasharray:none;stroke-opacity:1" />
              <path
                 id="path2399"
                 d="M 292.9028,344.92197 C 292.9028,344.92197 285.4028,342.06482 285.4028,339.20768 C 285.4028,336.35054 285.4028,333.13625 290.75995,333.13625 C 296.11709,333.13625 305.75995,322.06482 307.54566,318.13625 C 309.33137,314.20768 309.68852,305.27911 309.68852,305.27911 C 309.68852,305.27911 311.83137,306.70768 311.83137,310.99339 C 311.83137,315.27911 307.54566,323.85054 304.68852,330.99339 C 301.83137,338.13625 293.25995,345.63625 292.9028,344.92197 z"
                 style="opacity:0.62019228;fill:#ff6600;fill-rule:evenodd;stroke:none;stroke-width:1px;stroke-linecap:butt;stroke-linejoin:miter;stroke-opacity:1;filter:url(#filter3247)" />
              <path
                 id="path3251"
                 d="M 318.25995,310.27911 C 318.25995,310.27911 334.68852,303.85054 340.04566,310.27911 C 345.4028,316.70768 343.25995,328.85054 343.25995,328.85054 C 343.25995,328.85054 342.18852,316.35054 338.25995,313.13625 C 334.33137,309.92197 318.25995,310.63625 318.25995,310.27911 z"
                 style="fill:#d45500;fill-rule:evenodd;stroke:none;stroke-width:1px;stroke-linecap:butt;stroke-linejoin:miter;stroke-opacity:1" />
              <path
                 id="path3253"
                 d="M 262.18852,356.70768 C 262.18852,356.70768 272.90281,365.9934 308.61709,356.70768 C 344.33138,347.42197 345.04566,339.56483 345.04566,339.56483 C 345.04566,339.56483 353.61709,370.27911 332.90281,380.9934 C 312.18852,391.70768 281.47423,392.77911 281.47423,392.77911 C 281.47423,392.77911 278.25995,370.9934 262.18852,356.70768 z"
                 style="fill:#ffe6d5;fill-rule:evenodd;stroke:#d45500;stroke-width:1px;stroke-linecap:butt;stroke-linejoin:miter;stroke-opacity:1" />
              <path
                 id="path3255"
                 d="M 344.68852,340.27911 C 344.68852,340.27911 345.04566,351.70768 340.75995,358.85054 C 336.47423,365.99339 321.11709,371.70768 321.11709,371.70768"
                 style="fill:none;fill-rule:evenodd;stroke:#ff7f2a;stroke-width:1px;stroke-linecap:butt;stroke-linejoin:miter;stroke-opacity:1" />
              <path
                 id="path3257"
                 d="M 335.04566,323.85054 C 335.04566,323.85054 331.83137,315.63625 326.11709,315.27911 C 320.4028,314.92197 317.9028,317.42197 317.9028,317.42197 C 317.9028,317.42197 322.9028,315.63625 326.83137,319.92197 C 330.75995,324.20768 330.4028,329.92197 330.4028,329.92197"
                 style="fill:none;fill-rule:evenodd;stroke:#502d16;stroke-width:1px;stroke-linecap:butt;stroke-linejoin:miter;stroke-opacity:1" />
              <path
                 id="path3259"
                 d="M 295.4028,308.49339 C 295.4028,308.49339 300.75995,307.42196 301.83137,309.56482 C 302.9028,311.70768 302.54566,316.70768 302.54566,316.70768 C 302.54566,316.70768 300.4028,313.13625 298.25995,312.06482 C 296.11709,310.99339 292.18852,313.85054 292.18852,313.85054"
                 style="fill:none;fill-rule:evenodd;stroke:#502d16;stroke-width:1px;stroke-linecap:butt;stroke-linejoin:miter;stroke-opacity:1" />
              <path
                 id="path2395"
                 d="M 292.9028,294.92197 C 292.9028,294.92197 300.75995,294.20768 303.61709,299.92197 C 306.47423,305.63625 307.9028,311.35054 300.04566,319.92197 C 292.18852,328.49339 281.47423,329.92197 281.47423,335.63625 C 281.47423,341.35054 289.33137,346.35054 289.33137,346.35054"
                 style="fill:none;fill-rule:evenodd;stroke:#d45500;stroke-width:2;stroke-linecap:butt;stroke-linejoin:miter;stroke-miterlimit:4;stroke-dasharray:none;stroke-opacity:1" />
            </g>
            <path
               style="fill:none;fill-rule:evenodd;stroke:#006680;stroke-width:2.81391549;stroke-linecap:butt;stroke-linejoin:miter;stroke-miterlimit:4;stroke-dasharray:none;stroke-opacity:1"
               d="M 275.98502,430.09582 C 275.98502,430.09582 258.92375,435.90385 248.51586,450.8652 C 237.79619,466.27474 239.13613,477.66439 239.13613,477.66439"
               id="path3485"
               sodipodi:nodetypes="czc" />
            <path
               style="fill:none;fill-rule:evenodd;stroke:#006680;stroke-width:2.81391549;stroke-linecap:butt;stroke-linejoin:miter;stroke-miterlimit:4;stroke-dasharray:none;stroke-opacity:1"
               d="M 353.7027,430.09582 C 353.7027,430.09582 348.34286,445.50536 352.36274,460.9149 C 356.38262,476.32443 401.27127,490.39401 401.27127,490.39401"
               id="path3487" />
            <path
               style="fill:#006680;fill-rule:evenodd;stroke:none;stroke-width:1px;stroke-linecap:butt;stroke-linejoin:miter;stroke-opacity:1"
               d="M 237.25889,869.88692 C 237.25889,869.88692 227.78395,935.26405 222.09897,955.16143 C 216.41401,975.05882 194.62163,993.06122 179.46172,1000.6412 C 164.3018,1008.2212 132.08698,1004.4312 122.61203,1012.9586 C 113.13708,1021.4861 113.13708,1027.1711 113.13708,1027.1711 L 258.10377,1021.4861 C 258.10377,1021.4861 259.99876,1011.0636 258.10377,996.85119 C 256.20878,982.63876 256.20879,967.47878 256.20879,960.84639 C 256.20879,954.21389 284.63362,904.94422 284.63362,904.94422 L 269.47371,914.41917 C 269.47371,914.41917 254.31379,934.31656 245.78635,942.844 C 237.25889,951.37146 238.20639,926.7366 243.89135,911.57668 C 249.57632,896.41677 238.20639,867.04443 237.25889,869.88692 z"
               id="path3579"
               sodipodi:nodetypes="csssccssccssc" />
            <path
               style="fill:#006680;fill-rule:evenodd;stroke:none;stroke-width:1px;stroke-linecap:butt;stroke-linejoin:miter;stroke-opacity:1"
               d="M 391.625,883.34375 C 396.77223,912.88702 402.85725,942.31009 406.0625,972.15156 C 406.09708,976.3641 403.32371,979.82338 400.74734,982.87407 C 397.80391,987.56481 398.14201,993.81126 400.8125,998.53125 C 401.24661,1000.1336 399.70096,1001.0828 398.71612,1002.0172 C 394.55237,1006.0535 390.90759,1010.6453 388.77295,1016.0696 C 387.65055,1018.4605 386.58607,1021.1128 386.625,1023.8125 C 387.35396,1026.3451 390.3775,1027.021 392.6875,1026.75 C 410.61017,1027.3493 428.46091,1024.9353 446.37953,1025.105 C 452.47181,1025.0651 458.56406,1025.1254 464.65625,1025.1562 C 467.38702,1023.5987 467.30923,1020.0134 466.75858,1017.3186 C 465.83537,1009.1928 460.41458,1002.3722 454.1875,997.4375 C 446.47293,991.52375 440.84127,983.37677 436.18869,974.94877 C 434.22643,971.06112 432.4693,966.97163 431.64661,962.69347 C 432.54618,954.72535 434.41148,946.91026 435.72839,939.0079 C 439.28768,920.00527 442.84696,901.00263 446.40625,882 C 442.01557,891.05463 437.26043,899.96986 433.50655,909.30613 C 432.95376,913.35906 433.16297,917.4759 432.53922,921.52429 C 431.88259,929.32643 430.34731,937.35947 426.06521,944.04213 C 424.50174,945.80508 421.26509,945.85506 420.00406,943.69822 C 416.56503,939.91916 415.64276,934.69183 414.48121,929.89148 C 413.06823,922.31019 414.01021,914.4906 412.55112,906.92654 C 408.61975,897.84507 401.92033,890.3187 394.95639,883.43286 C 393.64231,882.13664 392.29693,880.87342 390.9375,879.625 C 391.16667,880.86458 391.39583,882.10417 391.625,883.34375 z"
               id="path3583"
               sodipodi:nodetypes="csssccsscccsscc" />
            <path
               style="fill:url(#linearGradient3933);fill-opacity:1;fill-rule:evenodd;stroke:none;stroke-width:1px;stroke-linecap:butt;stroke-linejoin:miter;stroke-opacity:1;filter:url(#filter3655)"
               d="M 389.28571,227.36218 C 389.28571,227.36218 400.71429,218.07647 401.42857,195.21932 C 402.14286,172.36218 383.57143,148.79075 382.85714,135.93361 C 382.14286,123.07647 390.71429,98.076467 390.71429,98.076467 C 390.71429,98.076467 384.28571,128.79075 392.85714,142.36218 C 401.42857,155.93361 416.42857,201.6479 416.42857,214.50504 C 416.42857,227.36218 395,258.79075 395,258.79075 C 395,258.79075 420,258.79075 432.85714,245.21932 C 445.71429,231.6479 453.57143,219.50504 448.57143,200.93361 C 443.57143,182.36218 432.14286,167.36218 432.14286,153.07647 C 432.14286,138.79075 437.14286,131.6479 437.14286,131.6479 C 437.14286,131.6479 431.42857,155.93361 440,170.21932 C 448.57143,184.50504 457.85714,198.07647 455.71429,230.93361 C 453.57143,263.79075 405,278.07647 405,278.07647 C 405,278.07647 392.85714,289.50504 392.14286,304.50504 C 391.42857,319.50504 383.57143,328.07647 387.14286,337.36218 C 390.71429,346.6479 373.57143,349.50504 380.71429,322.36218 C 387.85714,295.21932 392.14286,287.36218 382.14286,274.50504 C 372.14286,261.6479 330,270.93361 325.71429,271.6479 C 321.42857,272.36218 305,255.21932 306.42857,211.6479 C 307.85714,168.07647 326.42857,158.07647 331.42857,144.50504 C 336.42857,130.93361 331.42857,115.93361 331.42857,115.93361 C 331.42857,115.93361 343.57143,132.36218 335,153.79075 C 326.42857,175.21932 317.14286,210.93361 320,229.50504 C 322.85714,248.07647 345,254.50504 358.57143,245.93361 C 372.14286,237.36218 374.28571,231.6479 367.85714,222.36218 C 361.42857,213.07647 358.57143,199.50504 358.57143,199.50504 C 358.57143,199.50504 364.28571,213.79075 372.85714,218.07647 C 381.42857,222.36218 387.85714,227.36218 389.28571,227.36218 z"
               id="path3585" />
            <path
               sodipodi:type="arc"
               style="opacity:1;fill:#ffe6d5;fill-opacity:1;stroke:none;stroke-width:3;stroke-miterlimit:4;stroke-dasharray:none;stroke-dashoffset:0;stroke-opacity:1"
               id="path3671"
               sodipodi:cx="289.91379"
               sodipodi:cy="519.50671"
               sodipodi:rx="29.294424"
               sodipodi:ry="34.850262"
               d="M 319.20821,519.50671 A 29.294424,34.850262 0 1 1 260.61936,519.50671 A 29.294424,34.850262 0 1 1 319.20821,519.50671 z" />
            <path
               d="M 319.20821,519.50671 A 29.294424,34.850262 0 1 1 260.61936,519.50671 A 29.294424,34.850262 0 1 1 319.20821,519.50671 z"
               sodipodi:ry="34.850262"
               sodipodi:rx="29.294424"
               sodipodi:cy="519.50671"
               sodipodi:cx="289.91379"
               id="path3673"
               style="opacity:1;fill:#164450;fill-opacity:1;stroke:none;stroke-width:3;stroke-miterlimit:4;stroke-dasharray:none;stroke-dashoffset:0;stroke-opacity:1"
               sodipodi:type="arc"
               transform="matrix(0.4482759,0,0,0.4482759,177.12502,260.32559)" />
            <path
               style="fill:none;fill-rule:evenodd;stroke:#164450;stroke-width:3;stroke-linecap:butt;stroke-linejoin:miter;stroke-miterlimit:4;stroke-dasharray:none;stroke-opacity:1"
               d="M 303.21429,496.29075 C 303.21429,496.29075 259.28571,554.1479 263.57143,555.21932 C 267.85714,556.29075 275.35714,549.50504 275.35714,549.50504"
               id="path3675" />
          </g>
        </g>
      </g>
    </g>
  </g>
</svg>
