<?xml version="1.0" standalone="no"?>
<!DOCTYPE svg PUBLIC "-//W3C//DTD SVG 20010904//EN"
 "http://www.w3.org/TR/2001/REC-SVG-20010904/DTD/svg10.dtd">
<svg version="1.0" xmlns="http://www.w3.org/2000/svg"
 width="1009.000000pt" height="1134.000000pt" viewBox="0 0 1009.000000 1134.000000"
 preserveAspectRatio="xMidYMid meet">
<metadata>
Created by potrace 1.10, written by Peter Selinger 2001-2011
</metadata>
<g transform="translate(0.000000,1134.000000) scale(0.100000,-0.100000)"
fill="#000000" stroke="none">
<path d="M1965 11333 c-11 -3 -110 -29 -220 -59 -149 -41 -205 -61 -219 -77
-10 -12 -39 -64 -63 -114 -41 -87 -51 -99 -141 -177 -53 -46 -164 -146 -247
-222 -286 -265 -978 -877 -1073 -949 -2 -2 -2 -26 0 -54 l3 -51 35 33 c76 69
319 295 385 358 39 36 108 101 155 144 82 76 355 336 584 556 61 58 138 132
171 163 82 78 212 164 309 203 45 18 86 33 92 33 6 0 17 -26 24 -57 7 -32 32
-110 56 -173 45 -121 94 -282 118 -387 l14 -61 -32 -29 c-37 -34 -87 -73 -174
-134 -133 -94 -152 -108 -169 -125 -10 -10 -49 -38 -88 -64 -38 -25 -81 -55
-95 -67 -47 -40 -496 -366 -861 -624 -132 -93 -136 -95 -160 -80 -74 48 -203
143 -280 208 -49 40 -89 68 -89 61 0 -7 26 -31 57 -53 69 -49 227 -205 268
-264 l29 -43 -39 -74 c-22 -40 -102 -163 -178 -273 -76 -111 -137 -208 -135
-216 2 -8 88 109 192 261 l189 276 40 -6 c38 -6 63 -18 117 -52 14 -9 -1 8
-33 37 -88 83 -85 94 61 200 371 271 616 452 629 465 8 8 24 19 36 26 29 15
169 118 182 134 6 6 46 35 90 64 44 30 82 56 85 60 3 3 21 17 40 30 19 13 60
47 90 76 87 81 163 112 243 100 40 -7 43 -10 71 -72 16 -35 30 -63 32 -61 2 2
-11 47 -28 100 -28 85 -31 99 -18 111 20 19 180 69 354 111 77 18 154 38 169
44 16 6 63 18 105 27 43 9 97 24 122 34 25 10 80 26 122 34 43 9 119 29 170
45 51 17 125 37 164 45 39 8 113 28 165 45 52 16 112 32 134 36 22 4 87 20
145 36 237 68 484 130 503 127 15 -2 27 -17 38 -48 20 -52 47 -305 56 -520 l6
-148 -74 -23 c-89 -26 -187 -32 -252 -13 -33 9 -56 10 -73 4 -14 -6 -62 -7
-109 -4 -54 5 -89 3 -97 -4 -7 -5 -44 -13 -83 -17 -87 -9 -194 -32 -212 -46
-19 -16 -16 -43 7 -64 16 -14 17 -21 8 -39 -31 -61 -81 -93 -171 -107 -34 -6
-69 -16 -77 -23 -8 -7 -139 -49 -289 -94 -151 -45 -277 -86 -280 -90 -4 -5
-51 -18 -106 -30 l-100 -21 -38 42 c-47 52 -117 157 -175 262 -24 44 -41 71
-37 60 45 -125 80 -237 101 -315 l25 -95 -25 -20 c-49 -38 -404 -261 -727
-455 -179 -108 -336 -205 -347 -216 -12 -11 -51 -36 -87 -56 l-65 -37 -53 18
c-65 23 -169 75 -224 112 -53 37 -68 37 -27 1 115 -102 204 -187 204 -196 0
-31 -68 -144 -146 -244 -49 -63 -99 -132 -112 -155 -13 -23 -66 -102 -119
-174 -52 -73 -93 -138 -91 -145 5 -15 102 113 172 227 27 44 70 107 96 140 25
33 63 87 84 120 55 85 149 204 162 205 6 0 37 -18 69 -41 31 -22 59 -38 61
-36 3 2 -7 12 -22 21 -28 19 -71 104 -57 115 4 4 29 15 54 25 25 9 64 32 86
50 66 57 453 294 828 508 342 194 317 183 353 164 17 -9 43 -32 58 -51 40 -52
39 -36 -1 30 -19 33 -35 64 -35 70 0 14 55 38 125 54 28 6 73 20 100 31 51 20
414 135 515 164 l55 16 -25 -20 c-14 -11 -35 -23 -48 -26 -20 -6 -41 -48 -30
-60 3 -2 -10 -20 -27 -39 -32 -33 -33 -36 -34 -130 -1 -91 -2 -99 -37 -158
-45 -76 -81 -191 -89 -279 -5 -49 -11 -68 -21 -68 -8 0 -24 -10 -35 -21 l-22
-22 -86 89 c-48 49 -108 114 -135 144 -34 39 -15 6 64 -112 72 -108 109 -172
104 -180 -12 -18 -59 -57 -123 -101 l-56 -38 -115 3 c-111 3 -115 2 -125 -19
-5 -13 -18 -23 -28 -23 -10 0 -20 -7 -23 -15 -4 -8 -17 -15 -29 -15 -32 0 -58
-28 -52 -56 4 -22 1 -23 -62 -26 -57 -3 -67 -6 -76 -25 -6 -15 -22 -25 -45
-29 -51 -9 -60 -21 -60 -73 0 -46 -1 -48 -45 -69 -27 -13 -50 -33 -58 -49 -6
-15 -22 -37 -34 -50 -13 -12 -23 -27 -23 -32 0 -6 -13 -17 -29 -26 -16 -8 -37
-22 -46 -32 -15 -14 -23 -15 -60 -5 -63 17 -200 84 -278 136 -40 27 -63 38
-58 27 6 -10 17 -23 25 -30 41 -34 119 -154 120 -184 1 -23 7 -35 24 -42 30
-13 28 -19 -12 -33 -18 -7 -41 -21 -51 -32 -26 -28 -8 -65 35 -74 30 -5 31 -8
19 -25 -8 -11 -54 -75 -103 -143 -49 -68 -97 -142 -108 -165 l-19 -43 -64 -1
c-36 -1 -69 -3 -75 -4 -5 -1 -19 -3 -30 -4 -14 -1 -22 -10 -26 -31 -6 -25 -11
-30 -35 -30 -38 0 -60 -40 -40 -72 11 -18 11 -23 -7 -37 -11 -9 -21 -22 -24
-30 -2 -7 -19 -19 -38 -25 -31 -10 -35 -15 -35 -46 0 -19 -16 -66 -34 -103
-42 -83 -55 -199 -28 -241 16 -24 15 -25 -22 -59 -21 -19 -48 -38 -59 -41 -12
-4 -151 30 -346 84 -179 49 -331 90 -338 90 -39 0 41 -29 337 -120 182 -56
333 -107 337 -114 11 -16 10 -146 -2 -203 -5 -26 -30 -183 -55 -348 -25 -165
-53 -343 -61 -395 -9 -52 -18 -117 -20 -145 -3 -27 -11 -95 -20 -150 -8 -55
-17 -115 -20 -132 -3 -18 -13 -37 -24 -43 -10 -5 -92 -11 -182 -11 -90 -1
-194 -4 -233 -8 l-70 -6 98 -8 c55 -5 139 -5 188 -1 89 7 172 -6 186 -29 3 -5
-8 -20 -26 -34 -17 -13 -31 -33 -31 -43 0 -9 -7 -23 -15 -30 -8 -7 -15 -18
-15 -25 0 -7 -6 -18 -14 -24 -8 -7 -20 -32 -27 -56 -11 -37 -23 -51 -67 -80
-58 -39 -69 -55 -54 -82 8 -14 0 -32 -40 -90 -44 -64 -49 -76 -41 -100 8 -23
16 -28 44 -29 29 0 34 -4 40 -30 13 -66 76 -142 137 -165 29 -11 72 -4 72 11
0 6 5 10 10 10 6 0 10 -7 10 -15 0 -22 46 -30 73 -12 13 8 29 34 36 58 7 24
24 65 39 92 l25 47 23 -88 c12 -49 27 -120 33 -159 6 -39 24 -129 41 -200 l29
-128 -43 -42 c-31 -29 -47 -38 -54 -31 -28 28 -108 -70 -114 -138 -3 -36 -5
-39 -32 -36 -32 4 -66 -22 -66 -50 0 -22 25 -24 34 -3 3 8 12 15 21 15 11 0
15 -12 15 -48 0 -54 25 -88 70 -94 27 -3 26 -5 -33 -50 -49 -36 -106 -117
-123 -173 l-15 -54 -107 -42 c-59 -23 -108 -45 -110 -50 -2 -5 -18 -9 -35 -9
l-32 0 -33 173 c-18 94 -44 251 -58 347 -14 96 -28 177 -31 180 -14 14 9 -247
35 -396 17 -94 33 -197 37 -230 l6 -59 -40 -28 c-39 -27 -41 -31 -41 -79 0
-50 0 -50 28 -44 15 3 56 9 92 12 l65 6 138 -141 c86 -87 136 -145 131 -152
-11 -18 -12 -252 -1 -359 5 -52 8 -127 7 -167 0 -39 3 -74 8 -77 5 -3 13 -36
17 -73 4 -46 16 -86 36 -123 33 -60 65 -189 75 -299 6 -64 9 -72 30 -76 113
-23 113 -23 54 -97 -27 -33 -57 -66 -68 -74 -11 -8 -30 -44 -43 -81 -12 -38
-51 -126 -87 -198 -58 -117 -66 -140 -78 -230 -22 -165 -26 -189 -40 -209 -9
-12 -10 -26 -4 -42 5 -13 8 -24 5 -24 -8 0 -211 164 -288 232 l-77 70 0 -35
c0 -32 10 -43 113 -134 61 -54 140 -123 174 -152 l63 -53 0 -67 c0 -58 3 -71
23 -89 27 -26 45 -27 110 -7 l48 14 82 -64 c132 -104 651 -494 785 -589 106
-76 127 -87 157 -84 l36 3 -68 53 c-37 30 -258 205 -490 390 l-423 337 38 11
c21 7 52 19 69 28 43 22 153 128 153 148 0 29 -51 52 -120 54 -36 1 -82 6
-103 11 l-37 8 17 31 c10 18 31 46 46 64 l28 33 65 -22 c35 -11 89 -21 119
-21 49 0 56 3 68 27 8 16 17 72 20 128 2 55 8 108 12 117 18 45 40 33 307
-175 311 -242 727 -551 734 -545 2 3 -216 175 -485 383 -269 208 -494 389
-500 402 -13 28 -14 70 -3 75 11 5 85 108 80 113 -2 2 -26 -23 -53 -56 l-48
-61 -17 44 c-16 42 -16 44 5 83 12 22 35 72 51 110 15 39 36 80 45 93 10 12
28 65 40 117 l23 95 39 0 c52 0 180 -20 191 -30 9 -9 -40 -85 -152 -235 l-74
-100 75 81 c42 45 118 116 170 158 l94 76 66 -23 c58 -19 92 -43 255 -179
l189 -157 7 -59 c4 -34 2 -71 -4 -86 -11 -30 5 -119 35 -189 12 -30 17 -77 18
-197 l2 -159 34 -35 c52 -53 122 -80 194 -72 l58 6 29 -63 c26 -57 27 -67 17
-104 -9 -36 -8 -45 6 -61 9 -10 17 -30 17 -44 0 -42 10 -58 36 -58 22 0 24 -4
24 -42 0 -24 5 -61 10 -83 5 -22 7 -42 4 -44 -11 -11 -249 127 -361 211 -29
21 -53 37 -53 35 0 -2 101 -88 224 -191 l224 -187 -24 -112 c-13 -62 -26 -118
-29 -125 -3 -8 1 -12 11 -10 10 2 30 39 53 98 l37 95 89 12 c50 6 98 12 108
12 9 1 17 7 17 15 0 11 66 15 378 20 207 4 535 11 727 17 474 12 741 11 785
-4 33 -11 35 -15 42 -67 3 -30 6 -88 7 -127 1 -51 5 -73 14 -73 9 0 12 38 12
157 l0 157 37 21 c20 11 76 41 125 66 48 25 156 87 238 136 407 244 812 448
1180 594 83 33 161 64 174 70 16 7 27 6 37 -2 8 -6 46 -74 86 -150 39 -77 75
-139 79 -139 13 0 3 22 -87 206 -46 93 -86 189 -90 212 -6 40 -5 43 47 93 30
29 133 129 229 223 320 311 535 520 586 569 l51 48 47 -11 c59 -13 76 -5 110
55 15 25 38 56 51 69 19 19 25 36 25 70 0 42 4 48 76 117 41 41 80 76 86 78
11 4 34 -12 290 -202 115 -85 185 -143 181 -151 -33 -57 -376 -439 -689 -766
-55 -58 -143 -150 -195 -205 -52 -56 -179 -184 -284 -285 -104 -102 -209 -204
-233 -228 l-44 -42 -34 16 c-19 9 -49 33 -66 53 -17 20 -27 27 -23 16 12 -32
45 -148 42 -151 -1 -1 -65 -39 -142 -84 -128 -76 -330 -197 -825 -494 -144
-87 -179 -112 -159 -114 16 -2 59 18 124 57 105 62 262 152 607 345 232 131
406 216 440 216 19 0 33 -18 79 -102 65 -119 140 -281 194 -420 l38 -98 37 0
c85 0 141 51 863 791 373 383 700 726 728 765 28 38 65 96 81 129 34 67 115
166 269 331 58 61 192 230 302 377 108 147 301 399 427 562 202 259 230 299
230 331 0 35 -2 33 -108 -98 -365 -452 -1050 -1285 -1107 -1346 -10 -11 -36 7
-139 93 -70 59 -130 105 -132 102 -5 -5 130 -145 194 -200 l42 -37 -218 -263
c-410 -492 -769 -869 -1290 -1354 -72 -68 -135 -123 -139 -123 -4 1 -76 128
-159 283 -107 200 -153 295 -157 327 l-6 45 477 481 c625 630 944 929 1057
990 l36 19 27 -35 c33 -44 112 -120 124 -120 19 0 -15 41 -91 110 -82 74 -100
105 -80 143 14 26 782 1049 980 1306 74 96 142 179 151 184 12 8 75 -9 260
-71 133 -46 251 -85 261 -88 11 -4 17 -1 17 9 0 16 -26 25 -409 144 -153 47
-164 58 -151 148 14 89 49 484 54 610 3 61 12 164 20 230 9 66 20 203 26 305
21 376 90 829 129 849 13 8 305 71 325 71 3 0 6 7 6 16 0 13 -8 14 -47 8 -27
-4 -50 -10 -53 -14 -7 -11 -184 -40 -240 -40 l-47 0 -26 88 c-15 48 -46 175
-71 282 -103 454 -136 597 -145 623 -10 27 -10 27 35 27 56 0 297 -107 331
-147 17 -21 27 -25 53 -20 79 16 122 85 101 163 -39 143 -248 334 -521 475
l-65 34 -13 90 c-24 170 -93 383 -145 444 -14 17 -28 49 -32 73 -7 40 -5 44
26 71 19 15 45 31 59 34 14 3 27 10 30 14 13 19 463 178 551 194 l35 7 39 -84
c46 -101 79 -186 116 -298 l28 -85 0 118 c1 117 1 118 -45 235 -89 227 -207
435 -341 602 -73 92 -605 634 -843 859 -331 313 -535 485 -691 583 -172 108
-471 323 -982 706 l-377 283 -52 -3 -52 -3 414 -290 c228 -159 445 -312 483
-338 499 -349 646 -475 601 -520 -4 -3 -32 16 -63 44 -32 29 -72 54 -96 60
-46 13 -107 42 -147 72 -24 18 -36 19 -104 13 -208 -19 -338 -78 -481 -219
-40 -39 -73 -66 -73 -60 0 20 -38 25 -70 8 -26 -14 -30 -21 -30 -58 0 -30 -6
-48 -20 -60 -17 -14 -19 -24 -14 -57 6 -36 5 -40 -15 -40 -11 0 -21 3 -21 8 0
4 -39 47 -86 95 -68 69 -103 96 -175 133 -49 25 -95 44 -103 41 -7 -3 -23 1
-35 10 -19 13 -46 14 -184 6 -89 -4 -185 -7 -213 -5 -47 3 -54 1 -98 -37 -26
-23 -53 -41 -61 -41 -7 0 -26 -11 -42 -24 -24 -20 -31 -22 -46 -11 -10 7 -17
26 -17 47 0 39 64 211 141 381 l54 119 70 23 c39 13 79 24 91 25 12 0 47 13
79 29 l58 30 155 -122 c85 -67 192 -151 237 -187 45 -36 140 -110 210 -165
146 -115 165 -129 165 -122 0 3 -44 41 -97 84 -54 44 -222 181 -374 304 l-275
225 36 32 c74 67 124 186 118 279 -3 41 -6 48 -25 51 -13 2 -55 -13 -95 -32
-69 -34 -195 -73 -204 -63 -3 2 0 17 6 33 6 16 23 74 37 129 14 55 34 117 44
137 15 29 16 38 6 38 -15 0 -33 -40 -75 -170 -52 -161 -57 -170 -96 -170 -27
0 -36 6 -52 35 -35 66 -206 125 -362 125 -141 0 -270 -49 -383 -147 -40 -35
-110 -55 -171 -48 -179 20 -326 35 -403 40 -49 3 -115 8 -145 10 -199 17 -345
26 -407 26 -98 0 -118 16 -126 101 -10 98 -30 198 -40 198 -5 0 -6 -23 -3 -52
4 -29 9 -88 11 -131 l5 -79 -73 -33 c-75 -34 -213 -79 -282 -91 -22 -4 -45
-10 -51 -15 -5 -5 -80 -25 -165 -44 -85 -20 -167 -43 -184 -51 -16 -8 -93 -28
-170 -45 -76 -16 -144 -34 -150 -39 -13 -11 -182 -56 -267 -70 -38 -7 -68 -15
-68 -20 0 -4 -37 -15 -82 -25 -46 -9 -87 -21 -93 -25 -5 -4 -73 -22 -150 -40
-77 -17 -142 -35 -145 -39 -8 -11 -318 -76 -327 -68 -9 10 -105 266 -128 342
-14 50 -40 132 -57 183 -46 144 -46 147 2 193 46 44 132 91 230 125 l65 23
-60 -1 c-33 0 -69 -2 -80 -5z m2620 -338 c596 -38 711 -46 724 -48 7 -1 -15
-22 -49 -47 -56 -40 -67 -55 -110 -140 -89 -178 -117 -270 -130 -415 -7 -71
-14 -132 -16 -134 -1 -2 -133 11 -291 29 -203 23 -293 36 -305 47 -45 40 -119
218 -138 334 -13 83 -32 368 -25 380 8 12 71 11 340 -6z m1501 -329 c16 -8 42
-20 58 -26 25 -9 28 -14 23 -40 -8 -39 -95 -256 -138 -344 l-34 -70 -70 -18
c-39 -9 -105 -20 -147 -24 -94 -8 -113 3 -98 57 6 19 10 48 9 64 -1 17 3 50 9
75 7 25 12 66 12 92 0 93 13 105 188 180 86 36 157 67 158 67 0 1 14 -5 30
-13z m-1563 -435 c67 -11 163 -23 212 -26 50 -3 129 -13 176 -22 l86 -15 -1
-282 c-1 -154 2 -326 7 -381 4 -55 4 -105 -1 -112 -5 -8 -40 -3 -132 20 -125
31 -125 31 -162 79 l-38 47 12 99 c11 95 10 102 -11 155 -13 31 -29 61 -36 67
-7 6 -16 23 -20 38 -10 42 -64 92 -107 98 -32 6 -43 14 -68 55 -24 39 -41 54
-85 74 -58 25 -67 43 -44 88 24 44 37 45 212 18z m3876 -188 c80 -75 222 -212
315 -303 162 -157 158 -147 -18 44 -43 48 -77 89 -74 92 3 3 40 -22 81 -55
396 -315 749 -691 1044 -1111 100 -143 120 -182 62 -120 -24 25 -76 80 -116
122 -40 43 -73 76 -73 74 0 -2 44 -63 98 -134 98 -131 129 -178 121 -186 -2
-2 -119 -53 -259 -113 -273 -117 -396 -161 -409 -147 -25 28 -61 103 -51 109
16 10 12 61 -7 83 -10 10 -55 34 -100 52 -44 18 -101 50 -125 70 -43 38 -43
38 -43 106 0 57 -5 77 -28 116 -15 26 -35 49 -45 52 -9 3 -26 22 -36 41 -18
33 -63 79 -144 146 -17 15 -61 35 -97 44 -62 17 -71 23 -131 92 -35 41 -64 77
-64 81 0 4 7 34 14 67 43 182 58 452 35 640 -12 95 -23 121 -89 201 -35 43
-43 74 -18 74 6 0 76 -62 157 -137z m-2624 0 c81 -34 135 -64 135 -77 0 -6
-15 -23 -34 -38 -48 -38 -123 -141 -162 -221 -18 -38 -40 -74 -48 -80 -8 -7
-28 -46 -45 -87 -25 -63 -30 -70 -30 -43 -1 18 6 53 15 79 9 26 14 58 11 72
-3 14 -1 37 4 50 6 16 5 36 -3 58 -14 39 -2 127 34 251 24 83 15 80 123 36z
m-1855 -493 c4 -128 6 -124 -49 -142 -27 -9 -61 -13 -75 -11 -14 3 -32 0 -39
-5 -10 -9 -17 -6 -30 8 -28 33 -77 23 -77 -16 0 -28 4 -27 -80 -9 -36 8 -89
14 -118 15 l-54 0 96 104 96 103 87 6 c56 3 111 14 153 29 l65 24 11 -21 c7
-11 13 -49 14 -85z m3954 -76 c-13 -77 -15 -137 -10 -271 5 -145 3 -173 -10
-184 -11 -9 -18 -9 -26 -1 -19 19 -66 14 -80 -8 -9 -14 -19 -18 -36 -13 -16 4
-30 -1 -46 -16 -13 -12 -30 -19 -38 -16 -26 10 -65 -12 -72 -41 l-7 -28 -24
30 -23 29 38 75 c21 41 41 94 45 117 3 22 17 56 31 74 14 19 24 48 25 68 2 71
23 127 59 158 44 39 182 134 187 129 2 -2 -4 -48 -13 -102z m-2983 -95 l106
-21 7 -107 c6 -99 27 -266 41 -337 6 -29 3 -33 -59 -73 -63 -41 -67 -43 -90
-28 -13 9 -34 32 -46 51 -12 20 -26 36 -30 36 -5 0 -25 14 -45 31 -42 37 -45
72 -15 151 34 88 41 132 29 187 -5 27 -19 57 -30 67 -10 9 -19 30 -19 47 0 26
3 29 23 23 12 -3 70 -15 128 -27z m-1511 -760 c0 -4 -5 -20 -12 -34 -10 -22
-8 -30 10 -55 12 -16 22 -31 22 -34 0 -6 -134 -36 -162 -36 -16 0 -36 15 -61
45 -34 40 -36 46 -20 51 10 4 38 15 62 25 24 11 54 19 66 19 12 0 30 9 39 19
17 18 56 18 56 0z m-212 -204 c-11 -9 -495 -329 -688 -455 -129 -84 -238 -158
-242 -163 -9 -14 -107 -1 -171 23 l-54 20 19 40 c11 22 23 40 27 40 3 0 28 20
54 45 27 25 53 45 59 45 6 0 30 18 52 41 65 64 82 79 93 79 6 0 42 29 81 65
47 44 75 63 86 59 9 -3 26 1 39 9 12 8 43 17 67 20 89 11 104 18 135 59 54 73
154 157 194 163 20 3 68 12 106 18 l70 13 38 -59 c21 -33 37 -60 35 -62z m246
28 c3 -16 23 -41 44 -58 35 -27 103 -104 109 -123 2 -4 -48 -7 -111 -7 -103 0
-117 -2 -145 -22 -20 -15 -44 -23 -72 -23 -29 0 -50 -7 -64 -20 -14 -13 -42
-22 -85 -27 -61 -6 -63 -7 -79 -44 -10 -24 -27 -43 -44 -50 -16 -7 -41 -24
-56 -39 -15 -15 -61 -42 -101 -60 -150 -66 -440 -239 -440 -263 0 -9 -89 -97
-98 -97 -13 0 -102 88 -102 101 0 17 54 59 179 138 398 252 517 327 656 419
88 58 169 106 179 106 13 1 33 -17 55 -50 68 -98 63 -92 55 -69 -47 132 -52
151 -43 160 10 10 124 53 145 54 6 1 14 -11 18 -26z m4791 -112 c31 -52 40
-56 133 -68 36 -4 47 -11 68 -43 39 -59 65 -139 71 -218 7 -80 22 -106 59 -99
16 3 24 -2 27 -15 4 -14 -5 -23 -33 -38 -22 -11 -44 -20 -49 -20 -5 0 -93 84
-196 188 -160 161 -185 190 -180 211 3 13 16 32 28 41 17 14 22 29 22 64 0 25
5 46 10 46 6 0 24 -22 40 -49z m-1 -334 c80 -107 146 -198 146 -204 0 -16
-236 -171 -353 -234 l-99 -52 -50 24 c-27 13 -56 35 -63 49 -7 14 -32 43 -54
65 -23 21 -41 45 -41 52 0 15 -31 32 -64 35 -15 1 -26 6 -26 10 0 12 -56 47
-84 52 -33 6 -61 37 -43 47 7 4 29 9 49 13 23 4 39 14 43 25 3 12 27 25 67 37
40 12 63 24 66 36 3 12 14 18 36 18 39 1 81 31 73 53 -5 12 3 19 30 26 39 11
83 47 83 68 0 7 15 20 33 28 17 9 43 22 57 30 14 8 30 15 36 15 6 0 77 -87
158 -193z m477 -147 c8 -1 25 -24 39 -53 22 -45 29 -52 54 -52 34 0 43 13 51
78 8 58 32 60 27 2 -5 -59 -48 -161 -101 -241 -74 -112 -78 -205 -8 -192 21 4
23 0 24 -31 1 -19 8 -40 17 -47 9 -6 16 -24 16 -41 0 -51 42 -69 88 -37 22 15
25 14 67 -25 44 -41 137 -77 167 -66 8 3 31 -9 54 -30 47 -43 158 -100 213
-110 l39 -6 17 -77 c9 -42 28 -124 41 -182 14 -58 36 -155 49 -217 13 -62 40
-176 60 -254 30 -121 35 -156 33 -233 l-3 -91 -55 -12 c-30 -7 -95 -16 -145
-19 -49 -4 -95 -11 -102 -16 -6 -5 -71 -17 -145 -27 -73 -10 -138 -20 -144
-22 -16 -5 -70 44 -89 81 -9 17 -25 72 -36 123 -25 119 -59 242 -108 398 -22
68 -47 160 -56 204 -9 44 -34 134 -55 200 -21 66 -45 152 -55 190 -9 39 -29
111 -45 160 -54 168 -140 490 -140 525 0 44 5 51 60 82 114 65 123 69 140 53
9 -8 23 -15 31 -15z m-6637 -85 l58 -65 -53 -98 -52 -97 55 51 c58 55 106 84
135 84 10 -1 32 -13 50 -28 26 -22 29 -30 20 -43 -7 -9 -23 -20 -37 -24 -36
-11 -58 -33 -65 -66 -4 -15 -16 -40 -27 -54 -11 -15 -26 -44 -32 -67 -12 -39
-15 -41 -126 -89 -63 -27 -115 -49 -116 -49 -2 0 18 34 43 75 26 41 43 78 40
82 -4 3 -8 4 -10 2 -10 -13 -114 -177 -123 -193 -6 -11 -33 -27 -60 -36 -31
-11 -53 -25 -61 -41 -7 -13 -27 -29 -45 -35 -24 -8 -34 -18 -36 -36 -2 -19
-15 -30 -55 -49 -43 -20 -52 -28 -51 -49 1 -20 -11 -34 -59 -69 l-61 -44 -141
26 c-77 15 -194 42 -260 61 -230 66 -249 78 -203 135 17 23 32 30 58 31 59 1
192 37 273 74 85 38 147 78 224 143 28 23 53 43 56 43 2 0 7 -13 10 -30 7 -34
48 -51 78 -31 10 6 30 11 43 11 33 0 40 26 27 97 -6 31 -11 58 -11 59 0 1 20
14 44 28 123 72 396 308 396 342 0 26 16 14 74 -51z m6366 -49 c11 -19 34 -88
50 -153 16 -65 42 -158 58 -208 16 -49 35 -115 41 -145 6 -30 29 -113 51 -185
22 -71 56 -191 76 -265 20 -74 50 -184 66 -245 17 -60 59 -211 95 -335 36
-124 67 -249 70 -279 l6 -53 -94 6 c-68 5 -97 11 -106 23 -14 18 -73 178 -73
197 0 8 -6 19 -14 25 -8 7 -12 19 -9 29 2 10 -10 30 -31 51 -20 19 -36 43 -36
53 0 19 -68 136 -106 181 -13 16 -26 38 -30 51 -3 12 -18 30 -34 41 -23 16
-28 26 -29 60 0 44 -22 115 -48 155 -15 23 -24 53 -40 147 -3 17 -18 43 -34
57 -16 14 -31 38 -35 53 -4 16 -14 37 -24 48 -9 11 -23 35 -30 53 -7 18 -18
36 -24 40 -6 4 -29 32 -50 62 -22 30 -65 82 -96 115 -57 60 -70 89 -74 167 -1
26 13 36 234 157 129 72 238 130 242 131 3 0 16 -15 28 -34z m-5190 -290 c0
-19 4 -38 10 -41 5 -3 39 -8 75 -11 50 -4 72 -2 90 10 33 22 55 20 55 -3 0
-26 17 -35 57 -33 18 2 44 -5 59 -14 24 -16 27 -16 55 0 53 31 75 5 42 -52
-16 -28 -16 -31 1 -56 17 -26 16 -28 -15 -82 -30 -52 -31 -58 -19 -94 10 -29
10 -46 1 -73 -10 -30 -21 -39 -79 -64 -37 -16 -94 -35 -127 -43 -33 -7 -84
-23 -112 -36 -30 -13 -55 -19 -58 -13 -4 5 -32 26 -63 47 -31 21 -134 103
-229 184 l-171 146 28 33 c15 19 56 64 91 100 57 58 83 75 179 117 14 6 49 11
78 11 l52 1 0 -34z m-358 -306 c87 -73 348 -321 348 -331 0 -4 -13 -29 -29
-56 -19 -31 -33 -74 -40 -123 -7 -41 -20 -89 -30 -106 -10 -17 -24 -48 -31
-70 -7 -21 -33 -77 -58 -123 l-45 -84 -66 7 c-36 3 -77 8 -91 11 -14 3 9 -7
50 -21 41 -15 76 -28 78 -29 2 -2 -6 -33 -17 -70 -13 -41 -21 -95 -21 -139 0
-96 -15 -193 -40 -259 l-20 -54 -275 -8 c-212 -5 -279 -4 -290 5 -19 16 -19
68 -1 112 8 19 20 72 25 116 6 45 18 110 26 144 25 100 78 272 86 281 8 11
153 -16 273 -49 88 -25 134 -29 54 -4 -24 7 -60 21 -80 31 -21 11 -74 28 -119
39 -44 10 -87 24 -94 30 -26 22 -23 65 11 170 32 100 85 310 99 395 16 97 24
112 73 143 26 16 67 46 92 66 25 20 48 36 52 36 4 0 40 -27 80 -60z m1573
-110 c-4 -56 -3 -95 3 -103 5 -6 12 -28 15 -47 3 -19 18 -66 33 -104 25 -60
34 -71 71 -88 38 -18 41 -22 32 -45 -24 -64 -18 -62 -146 -57 -65 3 -147 6
-183 7 l-65 2 -1 55 c-1 30 -5 76 -9 101 -4 29 -3 60 4 80 10 29 76 109 151
184 11 12 20 29 20 40 0 21 46 64 69 65 11 0 12 -17 6 -90z m3035 9 c42 -28
46 -36 87 -152 52 -150 146 -340 185 -372 17 -14 67 -98 120 -197 50 -95 103
-186 118 -203 26 -29 110 -159 110 -170 0 -3 -163 -4 -362 -3 l-363 3 -59 105
c-120 216 -236 512 -305 783 -33 128 -32 159 5 183 21 14 25 14 52 -6 17 -12
35 -20 40 -16 5 3 15 -1 22 -9 7 -8 22 -15 35 -15 12 0 30 -9 40 -20 21 -24
61 -26 73 -5 7 14 11 13 27 -5 12 -13 31 -20 57 -20 47 0 55 15 42 80 -8 39
-7 49 5 58 22 15 21 15 71 -19z m-4989 -303 c-39 -141 -71 -263 -71 -272 0
-10 -6 -14 -17 -10 -10 2 -47 12 -83 20 -100 25 -290 88 -290 97 0 12 35 29
61 29 32 0 199 144 413 356 28 28 52 47 54 43 2 -4 -29 -123 -67 -263z m-1356
142 c94 -28 181 -53 195 -57 14 -4 25 -12 25 -18 0 -6 -28 -32 -63 -58 -49
-37 -62 -53 -60 -70 2 -14 -10 -36 -30 -59 -29 -33 -38 -58 -33 -94 3 -21 -74
-115 -160 -196 -67 -63 -168 -138 -271 -200 -16 -9 -28 -25 -28 -36 0 -22 28
-53 41 -45 5 4 9 -4 9 -17 0 -15 -12 -31 -36 -46 -29 -19 -35 -28 -31 -48 3
-19 -3 -28 -28 -44 -49 -30 -58 -45 -45 -70 9 -18 7 -24 -20 -47 -39 -32 -36
-60 7 -89 l32 -22 -37 -53 c-20 -29 -41 -53 -47 -53 -12 -1 -14 97 -3 147 5
21 13 80 18 130 5 51 16 124 24 162 18 83 57 336 86 560 29 224 46 309 74 371
l24 53 94 -25 c51 -14 170 -48 263 -76z m2455 -17 c-34 -86 -67 -145 -99 -175
l-30 -29 -71 57 c-39 32 -69 63 -67 69 3 11 278 138 285 132 1 -1 -6 -26 -18
-54z m3375 2 c82 -213 224 -649 275 -841 6 -24 13 -49 16 -57 12 -31 -48 -44
-207 -46 -85 -1 -182 -2 -217 -3 l-62 -1 -4 150 c-3 93 -12 183 -23 238 -19
86 -19 87 1 87 10 0 41 22 67 49 55 57 66 93 51 178 -10 57 -9 58 25 100 30
37 35 50 35 95 1 29 3 56 5 61 8 13 31 7 38 -10z m-3580 -250 c-37 -33 -49
-70 -30 -99 9 -14 11 -25 5 -29 -12 -7 -14 -58 -3 -69 13 -13 1 -79 -19 -107
-15 -20 -18 -31 -10 -44 5 -10 7 -26 5 -36 -7 -26 14 -49 43 -49 13 0 24 -5
24 -11 0 -6 -10 -9 -22 -6 -13 3 -95 15 -183 28 -88 12 -162 23 -163 25 -2 1
17 40 42 86 43 80 115 271 138 368 5 25 19 55 30 67 l20 22 75 -62 74 -62 -26
-22z m1323 -43 c45 -1 72 -72 72 -189 0 -81 -16 -132 -66 -207 -31 -47 -35
-59 -26 -75 9 -15 7 -27 -11 -63 -19 -39 -26 -45 -47 -41 -14 2 -59 7 -102 10
l-76 7 16 29 c13 22 14 33 6 46 -9 14 -6 32 13 83 14 36 42 115 63 175 21 61
52 148 70 194 l33 84 19 -26 c11 -15 27 -27 36 -27z m1362 -285 c6 -88 18
-205 25 -259 8 -55 15 -103 15 -108 0 -8 -145 -3 -236 8 -35 4 -42 9 -52 38
-7 18 -62 111 -122 206 -101 160 -121 199 -88 173 7 -6 27 -13 43 -16 17 -3
42 -9 57 -12 19 -5 32 -1 47 14 12 12 27 21 34 21 28 0 57 32 63 71 l7 39 16
-33 c13 -25 22 -32 45 -32 32 0 30 -3 60 107 13 44 23 61 44 72 l27 14 2 -71
c1 -40 7 -144 13 -232z m-1500 283 c-2 -12 -178 -526 -184 -536 -4 -6 -22 -12
-39 -12 -39 0 -44 9 -131 205 -68 151 -82 195 -66 195 6 0 10 26 10 59 0 52 3
60 23 66 32 11 388 31 387 23z m-2436 -75 c76 -42 227 -136 253 -157 1 -1 -18
-76 -42 -167 -25 -90 -45 -177 -45 -193 0 -83 -68 -252 -106 -266 -60 -23
-660 -75 -678 -59 -14 13 -20 115 -7 123 6 4 11 24 11 44 0 20 8 100 17 176
l18 139 174 173 c128 129 180 174 198 174 24 0 73 40 73 60 0 21 34 9 134 -47z
m3271 -29 c8 -85 21 -104 71 -104 33 0 45 -12 24 -25 -14 -9 -3 -25 18 -26 16
0 66 -70 194 -273 31 -50 57 -95 57 -99 1 -5 -54 -6 -121 -3 -68 2 -165 5
-216 5 -79 1 -94 4 -99 19 -3 9 -14 28 -24 42 -9 14 -25 65 -35 113 l-17 89
41 76 c42 80 82 196 82 238 0 13 4 24 9 24 5 0 12 -34 16 -76z m-1231 -322
l57 -113 -33 17 c-78 40 -158 105 -158 129 0 7 10 15 23 17 13 2 28 15 37 35
8 17 16 30 16 30 1 -1 27 -53 58 -115z m-974 23 c96 -19 177 -40 181 -47 4 -6
14 -8 23 -5 28 11 18 -19 -55 -165 -60 -120 -70 -146 -64 -175 3 -19 1 -49 -6
-68 -10 -28 -10 -39 1 -60 10 -19 11 -30 2 -50 -18 -39 -15 -57 15 -80 24 -20
25 -24 15 -54 -16 -45 -1 -78 39 -89 18 -4 34 -13 36 -19 2 -5 -58 -50 -132
-98 -75 -48 -184 -123 -242 -167 -58 -43 -108 -77 -110 -74 -2 2 0 46 5 97 9
92 6 161 -19 405 -7 67 -9 130 -4 140 4 11 9 29 11 41 1 12 15 66 29 120 15
54 31 136 35 183 8 81 43 200 59 200 4 0 86 -16 181 -35z m-1701 -245 c-8
-148 -14 -182 -42 -237 -15 -28 -23 -32 -104 -47 -48 -9 -94 -16 -100 -16 -7
0 18 46 56 103 68 100 154 250 180 315 8 18 15 31 16 30 1 -2 -1 -68 -6 -148z
m2574 109 c67 -10 78 -15 127 -59 l54 -47 -54 -52 c-58 -54 -247 -188 -254
-180 -3 2 -9 40 -15 84 -7 61 -6 101 5 165 7 47 14 88 14 93 0 10 37 9 123 -4z
m533 -65 c27 -5 31 -10 32 -42 1 -19 -3 -41 -9 -49 -7 -7 -9 -25 -6 -41 3 -16
-4 -46 -17 -76 l-22 -49 -38 34 c-22 19 -66 65 -98 102 -60 70 -65 88 -35 126
11 13 103 11 193 -5z m5058 -136 c-15 -310 -32 -529 -68 -858 -8 -74 -19 -209
-26 -300 -17 -257 -72 -745 -85 -759 -2 -2 -37 9 -77 23 l-73 27 -1 127 c-1
125 -2 129 -59 312 -192 615 -223 720 -214 726 15 9 10 48 -12 79 -11 17 -35
60 -54 97 l-34 66 24 154 c31 200 53 301 67 309 6 4 38 10 72 13 33 4 93 14
131 22 56 13 351 59 402 63 9 1 11 -25 7 -101z m-2393 63 l23 -19 2 -308 c2
-307 -3 -442 -27 -667 -10 -100 -14 -117 -28 -112 -9 2 -43 13 -76 23 -51 15
-63 24 -81 55 -12 21 -19 48 -17 61 3 13 -2 37 -11 54 -9 17 -16 40 -16 50 0
11 -16 53 -35 95 -76 164 -92 223 -90 327 l1 95 -42 65 c-60 93 -121 221 -116
246 4 27 38 33 213 35 69 1 145 5 170 9 76 13 106 11 130 -9z m883 -23 c24
-36 28 -51 27 -102 -1 -33 -5 -76 -10 -95 -5 -20 -12 -117 -15 -216 -9 -251
-32 -584 -58 -842 -9 -96 -13 -113 -28 -113 -52 0 -651 195 -682 222 -12 11
-35 22 -51 25 l-28 6 5 96 c3 53 8 306 12 563 4 354 9 470 18 477 8 7 140 12
362 14 192 1 365 3 384 4 31 2 39 -3 64 -39z m-2748 8 c1 0 -2 -28 -7 -61 -5
-33 -8 -190 -8 -350 2 -297 0 -322 -31 -437 -30 -108 -24 -108 -128 -5 -52 50
-94 98 -94 107 0 8 7 60 17 115 9 55 15 125 12 155 -3 37 1 62 10 76 10 16 11
28 4 47 -8 19 -6 34 4 54 8 15 15 40 15 55 0 15 5 39 12 55 7 15 13 57 13 93
1 36 5 76 9 88 8 23 10 24 89 17 45 -4 83 -8 83 -9z m433 -158 c22 -86 48
-203 57 -260 l18 -104 -26 -89 c-15 -50 -50 -169 -78 -265 -28 -96 -63 -213
-77 -260 -13 -47 -28 -89 -33 -94 -9 -9 -196 120 -264 182 l-44 41 14 55 c27
104 44 251 44 386 0 143 -17 500 -25 536 -3 13 1 24 8 26 6 2 78 0 159 -5 128
-8 150 -7 169 7 13 9 27 12 31 8 4 -4 26 -78 47 -164z m243 156 c39 -6 37 -2
58 -107 11 -53 16 -61 59 -93 45 -32 49 -37 55 -90 4 -31 17 -84 31 -118 13
-34 36 -113 51 -176 14 -63 30 -131 35 -150 4 -19 7 -36 5 -37 -5 -5 -224 74
-287 104 -35 16 -85 38 -111 48 -27 10 -48 23 -48 30 0 6 7 35 15 63 18 61 9
165 -24 272 -11 36 -31 112 -45 169 l-24 103 96 -6 c54 -4 113 -9 134 -12z
m-1847 -56 c-41 -50 -116 -114 -203 -177 -34 -24 -74 -60 -89 -80 -15 -20 -84
-95 -153 -166 -84 -88 -146 -164 -190 -233 -62 -97 -80 -117 -80 -89 0 6 -23
59 -50 116 -27 57 -47 107 -44 112 3 5 17 0 31 -11 55 -43 156 -19 230 57 36
37 60 53 78 53 33 0 81 73 90 139 l6 47 202 136 c111 76 203 137 205 137 2 1
-13 -18 -33 -41z m63 -10 c-74 -123 -99 -183 -149 -360 -38 -136 -57 -188 -67
-188 -23 0 -139 66 -190 108 l-44 36 228 227 c126 125 235 227 241 228 7 0 -2
-22 -19 -51z m4641 -138 c-2 -80 -6 -161 -9 -180 -6 -34 -8 -33 -63 80 -38 78
-54 122 -51 137 4 15 -5 42 -25 78 -17 30 -31 56 -31 58 0 1 41 -4 91 -12 l90
-15 -2 -146z m-4511 3 c85 -158 94 -182 97 -256 l1 -47 -40 -11 c-23 -5 -93
-27 -156 -48 -139 -46 -184 -56 -177 -38 2 6 25 85 51 175 37 131 129 372 141
372 2 0 39 -66 83 -147z m3892 -158 c21 -27 57 -68 80 -90 41 -40 41 -40 40
-115 0 -90 12 -199 25 -220 6 -8 11 -26 12 -40 4 -58 19 -146 27 -158 4 -7 0
-46 -10 -87 -14 -61 -15 -77 -4 -89 7 -9 19 -16 26 -16 8 0 14 -8 14 -19 0
-27 26 -44 55 -37 19 5 25 2 25 -9 0 -9 18 -32 39 -53 l39 -37 12 -115 c6 -63
14 -126 17 -139 6 -23 5 -24 -52 -16 -32 4 -90 15 -129 25 -39 11 -72 17 -74
16 -1 -2 23 -14 55 -27 137 -54 243 -108 243 -123 0 -9 9 -21 20 -28 11 -7 20
-18 20 -25 0 -7 7 -16 15 -21 13 -6 -4 -35 -88 -153 -170 -238 -330 -456 -590
-805 -136 -183 -247 -337 -247 -343 0 -16 -34 -31 -70 -31 -23 0 -46 12 -79
39 -40 34 -48 47 -64 107 -25 97 -97 270 -151 362 -25 43 -46 90 -46 104 0 14
19 54 43 89 340 504 456 675 532 789 l90 135 71 0 c58 0 68 2 55 12 -9 7 -33
18 -55 24 -21 6 -50 22 -64 36 -28 28 -28 43 -2 308 6 61 12 173 15 250 6 188
22 432 29 444 3 5 7 66 8 135 l3 126 38 -78 c21 -42 56 -99 77 -127z m-5479
113 c-4 -24 0 -106 7 -183 19 -187 18 -364 0 -445 -13 -58 -18 -66 -42 -70
-20 -4 -32 -17 -50 -55 -45 -98 -118 -180 -225 -255 l-34 -24 -24 30 c-33 42
-62 143 -74 259 -5 55 -16 125 -24 155 -8 30 -15 76 -15 102 0 26 -6 65 -14
85 -8 21 -24 108 -36 193 -11 85 -24 171 -27 190 -3 19 -2 32 2 28 5 -4 13 -4
19 1 6 6 99 13 206 17 107 3 197 8 199 10 2 2 34 4 71 4 l66 0 -5 -42z m-591
-50 c6 -46 27 -159 45 -253 18 -93 39 -206 45 -250 7 -44 23 -131 36 -193 26
-120 41 -274 31 -314 -8 -30 -223 -156 -422 -246 -178 -81 -172 -79 -180 -41
-6 24 -3 34 9 41 18 10 22 38 4 38 -28 0 -48 -33 -48 -80 0 -40 -4 -48 -24
-58 -22 -10 -24 -8 -30 26 -3 20 -6 58 -6 84 0 26 -7 65 -14 85 -41 106 -185
1138 -162 1160 20 20 104 35 296 53 255 23 289 26 356 28 l52 2 12 -82z m-870
-43 c53 -9 90 -21 101 -32 11 -12 21 -61 33 -153 9 -74 27 -189 40 -255 47
-238 99 -615 84 -615 -4 0 -8 4 -8 10 0 18 -52 85 -77 98 -13 8 -32 11 -41 7
-10 -4 -29 8 -54 32 -42 41 -53 43 -240 43 -78 1 -152 -28 -213 -81 -41 -36
-85 -118 -85 -159 0 -14 -9 -40 -20 -57 -16 -26 -27 -33 -55 -35 -19 -1 -43
-2 -52 -2 -14 -1 -19 14 -29 79 -6 44 -23 127 -37 185 -14 58 -35 156 -48 218
l-22 113 44 46 c24 24 69 62 100 83 91 63 181 168 238 280 28 54 72 125 99
158 l47 60 55 -5 c30 -2 93 -11 140 -18z m2461 -182 c39 -46 163 -123 215
-132 l31 -6 -64 -220 c-35 -121 -73 -253 -84 -294 -10 -41 -21 -76 -22 -78 -2
-2 -42 40 -88 92 -83 95 -178 185 -251 238 -21 15 -38 33 -38 41 0 7 18 36 40
64 23 28 56 77 76 109 34 56 153 202 165 203 4 0 13 -7 20 -17z m654 -60 c-49
-116 -76 -291 -49 -313 7 -7 14 -23 14 -37 0 -13 4 -33 10 -43 9 -16 5 -19
-33 -25 -23 -4 -122 -25 -220 -47 -97 -22 -181 -38 -186 -36 -10 3 37 199 83
350 22 71 31 89 49 93 12 2 85 20 162 39 169 41 180 42 170 19z m-1058 -169
l50 -131 -57 -80 c-81 -113 -170 -254 -228 -363 -41 -77 -51 -89 -57 -71 -3
12 -50 84 -104 160 -87 124 -125 191 -145 256 -5 17 11 34 88 94 141 109 390
280 397 273 4 -4 29 -66 56 -138z m2588 77 c89 -29 339 -134 361 -152 6 -5 22
-52 35 -104 l23 -95 -24 -57 c-123 -302 -245 -573 -257 -573 -5 0 -56 36 -114
80 -105 78 -237 202 -292 273 -27 35 -27 37 -12 66 8 17 27 79 41 138 14 60
48 183 75 275 27 92 49 170 49 173 0 10 26 4 115 -24z m-761 -284 c36 -32 66
-64 66 -70 0 -7 9 -17 19 -22 10 -6 72 -58 137 -116 66 -59 130 -116 143 -126
l24 -20 -41 -44 c-22 -25 -54 -51 -69 -59 -15 -8 -93 -76 -173 -150 -178 -167
-300 -274 -304 -269 -2 2 -17 31 -34 64 -43 86 -85 212 -117 349 -25 108 -26
120 -11 128 23 13 20 28 -7 28 -19 0 -25 8 -33 38 -9 37 -9 37 66 108 93 89
253 223 262 221 4 -1 36 -28 72 -60z m-1749 2 c5 -23 11 -30 25 -26 13 3 31
-11 61 -48 24 -30 100 -110 169 -178 l125 -124 -30 -108 -30 -108 -115 -3
c-63 -2 -133 -5 -155 -6 -42 -2 -245 26 -305 42 -20 5 -44 16 -54 23 -17 12
-16 16 9 72 15 33 37 87 49 120 38 100 81 176 147 264 35 46 68 90 74 97 15
21 23 17 30 -17z m-665 -65 c0 -8 17 -41 39 -72 21 -31 59 -95 86 -142 26 -47
65 -106 87 -132 70 -85 82 -138 52 -234 l-17 -52 -171 -32 -170 -33 -39 44
c-22 24 -65 78 -96 119 -158 208 -158 204 -18 327 56 50 129 120 162 155 60
66 85 81 85 52z m1704 -98 c53 -94 56 -96 141 -96 41 0 85 4 99 9 22 9 26 7
35 -21 16 -46 16 -46 -44 -73 -30 -13 -82 -44 -114 -69 -32 -25 -107 -77 -167
-117 -60 -40 -122 -83 -137 -95 -16 -13 -39 -24 -52 -24 -19 0 -24 7 -30 40
-4 22 -12 43 -17 47 -11 6 -7 -33 8 -70 6 -16 3 -17 -22 -10 -53 15 -118 6
-230 -31 -134 -44 -149 -44 -107 -6 l32 29 -27 17 -28 16 26 107 c15 58 36
138 48 176 11 39 25 88 31 111 l11 41 82 7 c46 3 151 22 233 40 83 19 160 34
172 35 16 1 30 -14 57 -63z m2661 2 c33 -12 64 -24 68 -28 14 -13 -100 -272
-148 -336 -12 -16 -12 -11 1 31 33 111 35 133 18 193 -9 31 -16 74 -15 95 1
20 -4 47 -10 59 -10 19 -9 20 7 13 11 -4 46 -16 79 -27z m-701 -148 c26 -91
67 -226 92 -301 39 -121 48 -139 78 -160 33 -22 33 -23 40 -119 3 -54 13 -134
21 -179 16 -84 15 -93 -23 -149 -11 -17 -70 10 -152 71 l-55 40 35 -39 c20
-21 61 -67 93 -101 31 -34 57 -67 57 -73 0 -14 -51 -86 -133 -187 -32 -40 -54
-73 -49 -73 5 0 55 48 111 106 78 80 107 105 124 102 14 -2 23 -11 25 -25 2
-13 11 -28 21 -35 22 -16 33 -64 31 -139 -1 -70 13 -107 43 -115 20 -5 25 -13
30 -52 3 -25 11 -51 18 -57 8 -6 19 -19 25 -30 6 -11 20 -21 31 -23 16 -2 19
-9 15 -33 -3 -17 0 -40 6 -52 6 -12 18 -39 27 -61 l15 -39 -37 -41 c-57 -64
-304 -326 -449 -476 -232 -241 -299 -311 -302 -321 -20 -53 -207 185 -306 390
-42 86 -46 101 -46 169 l0 74 158 161 c214 221 452 480 446 486 -6 6 -157
-146 -441 -443 l-181 -190 -59 44 c-32 24 -85 71 -117 105 -33 33 -52 49 -44
35 8 -14 42 -70 76 -126 34 -55 62 -105 62 -110 -1 -13 -80 -69 -147 -103 -32
-17 -116 -69 -188 -116 -71 -47 -197 -120 -280 -162 -82 -41 -157 -81 -165
-88 -43 -35 -313 -115 -387 -115 -39 0 -42 8 -42 125 0 50 -3 212 -7 360 -6
265 -6 271 15 296 33 43 346 175 548 232 89 26 279 67 306 67 9 0 26 -19 40
-42 14 -24 37 -54 51 -67 43 -41 32 0 -16 59 -24 29 -53 72 -65 95 -22 42 -22
43 -3 79 38 75 363 427 647 700 l111 107 136 -122 c75 -67 139 -119 142 -116
8 8 -6 23 -149 154 -135 123 -157 152 -157 203 0 51 259 606 275 588 1 -2 24
-77 49 -168z m1046 27 c206 -65 550 -212 550 -235 0 -28 -606 -936 -619 -927
-5 2 -11 32 -14 65 -11 99 -50 199 -204 512 l-146 297 28 48 c40 68 99 147
169 225 69 77 45 76 236 15z m-2661 -214 c63 -203 87 -303 106 -444 l6 -46
-138 -61 c-232 -102 -423 -169 -423 -147 0 3 -31 113 -70 246 -38 133 -70 248
-70 256 0 8 12 13 36 13 46 0 57 7 190 106 103 78 299 204 316 204 4 0 25 -57
47 -127z m877 49 c11 2 43 -14 79 -41 65 -49 295 -274 295 -289 0 -17 -234
-320 -389 -502 -145 -170 -308 -340 -327 -340 -37 0 -100 87 -177 245 -43 88
-103 204 -134 257 -30 54 -57 115 -60 137 -5 38 -3 41 83 128 187 188 346 332
408 368 36 21 79 53 97 71 l33 34 37 -36 c23 -22 44 -34 55 -32z m-3283 6 c3
-7 53 -82 111 -167 59 -84 105 -156 102 -158 -6 -7 -772 -152 -801 -153 -12 0
-42 25 -77 62 l-56 63 24 26 c13 14 24 32 24 41 0 18 183 124 309 178 82 35
302 110 352 119 4 0 9 -5 12 -11z m-987 -53 c4 -26 11 -35 26 -35 12 0 24 -12
34 -35 23 -55 19 -72 -18 -80 -40 -9 -58 -22 -58 -42 0 -10 7 -14 20 -10 11 3
20 1 20 -5 0 -6 7 -8 15 -4 32 12 18 -35 -60 -196 -24 -51 -31 -58 -57 -58
-34 0 -161 72 -183 104 -20 28 -19 75 3 109 l19 27 13 -25 c7 -14 17 -25 22
-25 10 0 10 1 -3 39 -10 28 -9 35 11 53 21 20 110 33 110 16 0 -15 58 -8 64 7
4 13 2 13 -14 5 -24 -13 -41 -13 -18 1 15 8 14 13 -15 41 l-32 32 22 44 c42
83 68 95 79 37z m2364 -151 c6 -6 -166 -42 -468 -98 -262 -49 -533 -99 -602
-112 -69 -13 -334 -62 -590 -110 -256 -47 -548 -101 -650 -121 -273 -51 -263
-51 -288 -16 l-21 29 142 26 c183 34 1788 339 2017 383 156 31 190 34 313 32
75 -2 142 -8 147 -13z m-15 -50 c-27 -21 -128 -67 -190 -87 -55 -17 -135 -34
-320 -67 -66 -11 -182 -32 -258 -46 -77 -14 -141 -23 -145 -20 -3 3 -10 2 -16
-3 -6 -5 -45 -14 -86 -21 -41 -7 -84 -14 -95 -16 -116 -23 -967 -174 -972
-172 -5 0 -15 -2 -23 -5 -22 -9 -462 -86 -468 -82 -1 1 1 16 4 32 6 30 8 31
98 48 50 9 125 23 166 31 41 8 212 39 380 70 168 30 536 98 818 150 1069 197
1054 194 1069 182 8 -6 13 -7 12 -2 -3 19 2 24 24 24 22 -1 22 -1 2 -16z m444
-36 c26 -131 33 -203 32 -340 0 -84 -5 -156 -11 -168 -6 -10 -29 -24 -53 -31
-64 -17 -269 -56 -391 -74 -121 -18 -125 -16 -126 40 l-1 30 -15 -30 c-20 -36
-42 -55 -66 -55 -34 0 -622 299 -638 324 -11 18 -12 33 -5 62 12 45 -21 35
340 100 196 34 279 53 335 77 128 54 122 64 83 -136 -18 -95 -33 -203 -33
-241 0 -67 9 -86 15 -29 1 15 16 96 33 178 17 83 35 175 39 205 l8 55 60 6
c34 3 88 18 125 34 62 28 125 40 217 44 l42 1 10 -52z m-2476 -148 c44 -41 46
-45 27 -52 -11 -4 -36 -7 -55 -6 -19 1 -40 -3 -47 -9 -7 -6 -30 -13 -52 -16
-36 -6 -37 -5 -23 11 9 9 17 37 19 62 3 41 6 45 33 51 44 8 45 8 98 -41z
m7144 -134 c15 -24 33 -51 38 -61 7 -12 29 -18 78 -22 l68 -5 35 39 c27 30 41
37 64 35 19 -2 36 4 50 18 l21 21 55 -37 c99 -68 99 -53 -12 -216 -233 -340
-571 -818 -747 -1058 -55 -74 -120 -164 -146 -199 -87 -120 -97 -123 -175 -58
-39 33 -275 219 -383 302 -7 6 -17 24 -22 42 -10 36 -50 -22 434 640 88 120
239 329 335 464 l174 244 53 -53 c28 -29 64 -72 80 -96z m-6078 20 c11 -20 9
-33 -24 -107 -20 -46 -48 -104 -62 -129 -14 -25 -34 -61 -45 -80 l-20 -35 27
30 c115 128 228 225 264 225 12 0 121 -49 244 -108 122 -60 252 -122 290 -138
l67 -28 0 -71 c-1 -38 -7 -106 -15 -150 -8 -44 -15 -84 -15 -89 0 -5 17 19 38
53 44 73 136 190 169 214 12 10 79 29 147 42 69 13 180 39 248 56 68 17 139
31 158 30 51 -2 76 -35 84 -112 7 -61 33 -220 76 -454 29 -161 35 -147 -72
-183 -127 -43 -240 -61 -458 -72 -102 -5 -232 -14 -290 -21 -134 -14 -205 -9
-231 18 l-20 20 21 66 c24 74 23 108 -2 56 -49 -104 -71 -146 -86 -166 l-17
-22 -55 34 c-30 19 -59 38 -65 43 -12 10 -221 165 -320 237 -38 28 -121 89
-182 134 l-113 83 0 46 c0 32 8 60 25 87 39 63 29 65 -17 3 l-41 -57 -44 30
c-95 66 -470 383 -472 399 -1 6 721 137 765 139 23 1 34 -5 43 -23z m2248
-193 c34 -71 96 -189 138 -263 80 -144 121 -239 108 -250 -15 -13 -276 -128
-429 -188 -205 -82 -355 -134 -371 -128 -9 4 -13 25 -13 63 0 32 -7 70 -14 85
-26 49 -86 458 -86 578 l1 45 117 57 c167 81 317 126 432 127 l55 1 62 -127z
m-2967 -50 c69 -71 176 -181 239 -245 l114 -117 -43 -108 c-87 -218 -231 -500
-272 -535 -11 -10 -36 -18 -54 -18 -31 0 -49 14 -174 141 -121 122 -139 145
-142 177 -3 32 -9 39 -58 68 -30 18 -64 31 -75 29 -15 -3 -56 30 -158 128
l-138 133 9 40 c11 48 -7 127 -42 189 -12 23 -20 47 -18 54 2 6 11 -2 21 -20
20 -41 48 -60 60 -40 7 11 14 9 39 -9 19 -14 38 -21 52 -17 12 3 33 1 48 -4
30 -10 84 1 89 18 2 6 -14 18 -36 26 -34 14 -61 41 -61 61 0 3 13 6 28 6 74 0
189 59 218 112 7 12 37 22 104 34 52 8 97 18 99 20 13 12 38 -8 151 -123z
m-948 -85 c19 -90 38 -123 87 -151 29 -17 31 -18 37 -2 5 11 -2 24 -20 38 -31
26 -46 73 -45 142 0 39 2 45 9 28 5 -11 24 -43 43 -70 19 -26 39 -63 45 -81
11 -31 9 -38 -18 -77 -16 -23 -44 -55 -61 -69 -37 -32 -76 -32 -71 -1 19 120
11 177 -35 248 -33 53 -39 41 -8 -16 29 -51 41 -126 30 -184 l-7 -38 -15 55
c-23 91 -95 190 -138 190 -8 0 -11 7 -8 20 4 14 19 22 57 29 43 8 67 13 96 20
3 0 13 -36 22 -81z m-797 -40 c4 -24 15 -58 26 -76 16 -28 19 -53 19 -157 0
-68 -3 -131 -6 -140 -5 -13 -36 12 -140 116 -176 176 -176 175 -27 247 59 29
110 52 114 52 4 0 10 -19 14 -42z m183 -177 c41 -11 115 -5 165 14 13 6 17 2
17 -15 0 -24 30 -80 42 -80 4 0 8 -4 8 -8 0 -10 -129 -142 -139 -142 -4 0 -15
-13 -24 -30 -10 -16 -23 -30 -29 -30 -6 0 -19 -7 -28 -15 -9 -8 -42 -17 -75
-21 l-58 -7 6 174 c3 96 9 182 12 191 7 17 9 17 34 -1 14 -10 45 -24 69 -30z
m922 -188 c36 -34 84 -78 108 -99 51 -45 42 -57 -33 -43 -27 5 -63 8 -80 7
-23 -1 -57 16 -143 75 -62 42 -120 77 -130 77 -9 0 11 14 45 31 35 16 71 41
80 54 l18 23 35 -31 c19 -18 64 -60 100 -94z m-337 72 c14 -20 15 -28 5 -44
-16 -26 -68 -54 -150 -81 -71 -22 -91 -37 -37 -26 28 5 30 4 23 -17 -12 -38
-42 -93 -69 -126 -31 -36 -23 -42 12 -9 l24 22 -3 -36 c-2 -30 3 -41 26 -59
34 -27 86 -97 86 -116 0 -9 -13 -13 -40 -13 -23 0 -40 -5 -40 -11 0 -6 -6 -9
-14 -6 -7 3 -28 -3 -45 -14 -17 -10 -38 -19 -46 -19 -8 0 -15 -7 -15 -14 0
-11 -11 -15 -40 -13 -28 1 -45 -5 -58 -19 -10 -11 -39 -25 -63 -32 -24 -7 -56
-17 -71 -22 -16 -4 -30 -4 -33 1 -3 4 -17 4 -31 -1 -51 -20 -62 -14 -73 41
-37 169 -52 284 -40 288 7 2 22 14 34 27 11 12 25 20 31 16 13 -10 34 -59 34
-82 0 -11 7 -20 15 -20 8 0 15 7 15 16 0 27 -23 94 -32 94 -4 0 -8 6 -8 13 0
17 41 42 63 38 10 -1 20 7 26 21 4 12 26 32 47 43 24 12 45 34 55 55 9 19 31
47 48 63 17 15 31 32 31 37 0 6 15 3 33 -7 52 -28 160 -24 222 8 63 33 57 33
78 4z m1555 -79 c75 -57 209 -154 297 -215 130 -91 228 -162 287 -211 11 -8
-73 -324 -125 -471 -38 -109 -113 -296 -123 -308 -2 -2 -24 -4 -48 -5 -31 0
-57 8 -88 27 -40 26 -39 24 20 -32 60 -56 64 -63 69 -115 4 -41 0 -73 -15
-123 -12 -37 -42 -153 -66 -258 -73 -305 -103 -410 -118 -413 -8 -1 -26 7 -41
18 -23 18 -27 29 -27 70 0 41 -7 59 -49 122 -27 40 -66 88 -86 107 -45 42 -58
68 -90 177 -26 90 -48 134 -65 134 -6 0 -10 7 -10 15 0 8 -6 15 -12 15 -7 0
-28 34 -47 75 -18 41 -50 94 -71 117 -20 24 -40 57 -44 74 -18 81 -152 240
-292 345 -52 39 -94 72 -94 74 0 15 293 175 322 175 7 0 60 -42 118 -93 149
-131 276 -235 529 -431 11 -8 13 -8 10 1 -2 7 -148 132 -324 278 -195 162
-321 274 -323 286 -7 39 95 264 190 421 49 81 166 248 174 248 2 0 66 -47 142
-104z m-1434 -42 c34 -23 89 -62 124 -86 59 -39 63 -45 58 -72 -10 -50 -23
-58 -85 -51 -150 18 -267 50 -330 92 -46 30 -45 28 -31 70 8 22 21 33 48 41
20 6 52 22 71 35 44 30 68 25 145 -29z m-216 -157 c62 -32 165 -61 278 -76 55
-8 81 -17 90 -30 7 -10 34 -24 59 -31 25 -7 60 -26 77 -41 16 -16 35 -29 42
-29 6 0 25 -14 43 -30 18 -17 41 -30 52 -30 30 0 51 11 51 26 0 8 7 17 15 20
9 4 27 27 42 53 15 25 28 48 30 50 6 8 193 -183 193 -197 0 -17 -89 -147 -142
-207 l-40 -45 -26 18 c-61 42 -324 166 -432 203 -224 77 -215 71 -350 220 -34
38 -53 69 -57 93 -6 37 2 70 15 64 4 -2 31 -16 60 -31z m6012 -179 c11 -18 20
-41 20 -50 0 -10 13 -32 29 -50 16 -19 32 -52 36 -73 17 -90 54 -159 143 -258
4 -4 22 -17 41 -30 19 -12 36 -27 38 -33 9 -28 -871 -874 -909 -874 -12 0
-224 336 -281 447 -26 49 -22 91 12 127 351 380 803 826 837 826 8 0 23 -15
34 -32z m-2622 6 l61 -7 8 -76 c22 -201 5 -511 -37 -708 l-11 -52 -132 -5
c-73 -3 -181 -8 -242 -11 -60 -3 -283 -10 -495 -16 -212 -5 -409 -10 -439 -12
-48 -2 -56 1 -74 25 l-20 27 63 168 c99 266 240 590 262 604 5 3 37 7 71 8 34
1 92 6 128 11 36 5 129 12 205 15 181 8 226 11 244 18 38 15 303 22 408 11z
m-3381 -125 c7 -7 22 -7 50 1 34 10 45 9 84 -8 24 -12 89 -37 144 -57 55 -20
181 -76 280 -125 157 -77 197 -102 310 -193 121 -97 158 -135 243 -243 31 -41
44 -83 20 -68 -7 5 -8 3 -3 -7 40 -66 57 -89 65 -84 11 7 55 -67 80 -134 l19
-48 -72 -5 c-85 -6 -148 -31 -206 -83 -23 -21 -45 -35 -49 -31 -4 4 -7 51 -8
104 -1 54 -2 104 -3 112 -2 24 -63 93 -71 81 -4 -7 -54 12 -141 55 -287 141
-384 167 -742 193 -142 10 -260 21 -264 24 -26 27 -76 398 -54 405 6 2 11 10
11 18 0 24 15 15 27 -16 10 -28 13 -29 42 -19 29 10 31 14 25 44 -3 20 -1 35
5 40 7 4 14 -6 17 -24 7 -34 11 -36 49 -21 20 8 25 15 20 30 -5 14 -2 18 7 15
8 -3 27 8 44 24 31 32 53 38 71 20z m4741 -125 c17 -5 38 -36 81 -123 105
-208 212 -444 208 -455 -9 -23 -651 -387 -1067 -606 -129 -67 -260 -137 -291
-155 l-57 -33 -26 92 c-48 171 -71 308 -87 526 -5 69 -12 142 -15 163 -5 32
-4 37 13 37 10 0 23 4 28 9 6 5 44 16 85 26 262 62 554 207 865 430 114 82
191 108 263 89z m-1301 -647 c17 -17 21 -35 57 -282 16 -103 41 -463 33 -471
-7 -7 -532 -49 -817 -65 -107 -6 -253 -14 -325 -19 -341 -20 -569 -31 -581
-26 -24 9 -16 99 20 229 57 200 98 368 106 432 4 33 17 84 30 112 18 42 27 52
53 57 18 4 165 11 327 17 509 16 741 26 748 34 4 3 80 5 169 3 139 -3 165 -6
180 -21z m1735 -165 c102 -173 218 -385 218 -398 0 -5 -10 -16 -22 -23 -21
-13 -485 -285 -648 -381 -87 -51 -490 -274 -615 -340 -55 -30 -114 -64 -130
-76 -52 -39 -259 -133 -271 -123 -22 18 -73 146 -83 209 -6 36 -11 101 -12
145 -1 67 -2 74 -10 45 -5 -20 -4 -76 1 -134 12 -115 13 -296 2 -312 -13 -20
-302 -33 -997 -45 -286 -5 -547 -11 -580 -13 -33 -2 -64 -1 -69 2 -4 2 22 17
58 32 98 41 176 96 176 123 0 32 -9 40 -65 66 -37 18 -78 25 -170 31 -67 5
-151 18 -190 29 -38 12 -71 21 -72 21 -2 0 -3 7 -3 15 0 8 -9 20 -20 27 -11 7
-20 24 -20 38 0 31 95 278 119 306 15 19 31 22 167 28 82 3 187 9 234 12 532
32 892 55 929 59 197 20 304 25 338 16 74 -21 119 -64 147 -141 l15 -45 -5
100 c-3 55 -7 105 -9 111 -2 6 17 21 42 33 25 12 107 57 182 100 164 94 233
131 556 297 232 119 687 333 710 333 6 0 49 -66 97 -147z m-3488 -701 c32 -34
32 -37 -21 -213 -35 -119 -48 -116 -77 17 -10 44 -20 87 -22 96 -3 10 8 29 25
45 17 16 36 41 42 56 14 35 19 35 53 -1z"/>
<path d="M202 7794 c-112 -157 -202 -292 -200 -300 3 -17 29 16 166 209 75
107 225 329 246 365 4 6 4 12 -1 12 -4 0 -99 -129 -211 -286z"/>
</g>
</svg>
